<svg width="49" height="51" viewBox="0 0 49 51" fill="none" xmlns="http://www.w3.org/2000/svg">
<path d="M26.6299 50.42H22.4599C22.1532 50.3649 21.8412 50.3447 21.53 50.36C18.6231 50.0229 15.8066 49.1372 13.2299 47.75C10.6411 46.3508 8.32983 44.4902 6.40998 42.26C3.19999 38.5637 1.11764 34.0242 0.409975 29.18C0.330182 28.5699 0.28998 27.9552 0.289858 27.34C0.192855 25.3396 0.233066 23.3349 0.409975 21.34C0.672794 19.3487 1.19028 17.3994 1.94989 15.54C2.93077 12.9904 4.33372 10.624 6.09992 8.53998C7.37831 7.01493 8.83158 5.6455 10.4299 4.45996C12.1999 3.18959 14.1215 2.14488 16.15 1.34998C17.6257 0.748703 19.1711 0.335478 20.7499 0.119995C21.3299 0.0499951 21.9099 0.12 22.4799 0H26.65C27.46 0.11 28.2799 0.0599707 29.0799 0.219971C32.4245 0.851688 35.5872 2.21787 38.3399 4.21997C38.994 4.66302 39.6218 5.14383 40.2199 5.65997C41.7866 7.03455 43.1862 8.58855 44.39 10.29C46.6637 13.5403 48.137 17.282 48.6899 21.21C48.7699 21.81 48.6899 22.43 48.8099 23.03V27.3C48.6999 28.08 48.8099 28.87 48.6299 29.64C48.2527 31.8822 47.5802 34.0645 46.6299 36.13C44.5082 40.6942 41.0758 44.5235 36.77 47.13C33.7246 49.0275 30.2519 50.1312 26.6699 50.34L26.6299 50.42Z" fill="#000E40"/>
<path d="M29.5599 33.92C28.4399 34.13 27.33 34.32 26.19 34.42C25.0651 34.51 23.9348 34.51 22.8099 34.42C21.7402 34.3275 20.678 34.1638 19.63 33.93C19.53 33.81 19.34 33.93 19.25 33.74C18.3418 33.4574 17.4504 33.1235 16.58 32.74C15.795 32.3543 15.0366 31.9167 14.3099 31.43C14.1699 31.34 14.01 31.21 13.9 31.31C13.79 31.41 13.8999 31.57 14.0499 31.68C14.8007 32.4196 15.6175 33.089 16.49 33.68C17.2905 34.2676 18.1778 34.7265 19.12 35.04C19.43 35.16 19.2 35.32 19.12 35.39C18.88 35.77 18.62 36.13 18.36 36.49C18.16 36.65 17.93 36.57 17.71 36.59C17.6416 36.6007 17.5717 36.5973 17.5046 36.5801C17.4376 36.5629 17.3748 36.5323 17.32 36.49C16.165 36.2988 15.0325 35.9906 13.94 35.57C12.7466 35.1195 11.6528 34.4401 10.72 33.57C10.36 33.2 9.95001 32.89 9.63001 32.49C9.53001 32.36 9.42996 32.26 9.44996 32.08C9.54996 31.08 9.61001 30.08 9.75001 29.08C9.94556 27.6039 10.2158 26.1387 10.5599 24.69C10.8798 23.3372 11.2704 22.002 11.73 20.69C12.177 19.4116 12.7394 18.1766 13.41 17C13.7958 16.4735 14.3178 16.062 14.9199 15.81C16.3835 14.8721 18.0183 14.2331 19.73 13.93C19.97 13.93 20.26 13.75 20.45 14.06C20.64 14.37 20.6 14.45 20.26 14.51C19.8652 14.5716 19.4813 14.6895 19.12 14.86C19.05 14.96 18.91 14.96 18.83 15.05C17.1438 15.6013 15.6215 16.5636 14.4 17.85C14.5225 17.8894 14.6525 17.8991 14.7794 17.8782C14.9064 17.8573 15.0266 17.8065 15.13 17.73C16.5542 16.8777 18.1029 16.2535 19.72 15.88C21.7283 15.3747 23.8048 15.1957 25.87 15.35C28.1329 15.463 30.3544 15.9989 32.4199 16.93L33.52 17.42C33.8284 17.6482 34.1644 17.8363 34.52 17.98C34.72 17.76 34.52 17.58 34.39 17.5C33.187 16.4489 31.8004 15.6285 30.2999 15.08C30.2534 15.0743 30.2065 15.0743 30.16 15.08C30.09 14.99 29.95 14.99 29.88 14.89L28.7899 14.54C28.6599 14.54 28.42 14.54 28.49 14.32C28.56 14.1 28.58 13.89 28.9 13.92C29.5015 13.9743 30.095 14.095 30.6699 14.28C31.1999 14.44 31.67 14.63 32.24 14.8C32.55 14.92 32.77 15.19 33.09 15.28C33.65 15.61 34.19 15.96 34.76 16.28C35.3398 16.6126 35.7775 17.1463 35.99 17.78C36.32 18.56 36.75 19.29 36.99 20.09C37.7402 22.1033 38.3288 24.1732 38.75 26.28C39.1091 28.164 39.3595 30.0672 39.5 31.98C39.5152 32.1104 39.4995 32.2426 39.4544 32.3659C39.4092 32.4892 39.3358 32.6002 39.24 32.69C37.9396 34.1098 36.3076 35.1852 34.49 35.82C33.5519 36.1238 32.5926 36.3577 31.62 36.52C31.21 36.65 30.81 36.78 30.49 36.34C30.3401 36.016 30.1335 35.7214 29.88 35.47C29.61 35.14 29.88 35.08 30.07 35.01C30.782 34.7765 31.4559 34.4395 32.07 34.01C33.0752 33.3708 34.0046 32.6193 34.84 31.77C34.94 31.66 35.04 31.56 34.99 31.4L35.11 31.32L35 31.4C34.55 31.33 34.29 31.71 34 31.9C32.6634 32.7163 31.2195 33.3424 29.71 33.76C29.78 33.83 29.6399 33.83 29.5599 33.92Z" fill="#FEFEFE"/>
<path d="M30.61 36.3C30.94 36.64 31.36 36.44 31.74 36.48C31.6655 36.5675 31.5697 36.6343 31.4619 36.6741C31.3541 36.7139 31.2379 36.7254 31.1244 36.7073C31.0109 36.6893 30.9041 36.6423 30.814 36.5709C30.7239 36.4996 30.6536 36.4063 30.61 36.3Z" fill="#263361"/>
<path d="M34.59 17.98C34.1956 17.933 33.836 17.7317 33.59 17.42C33.98 17.45 34.22 17.84 34.59 17.98Z" fill="#454F75"/>
<path d="M33.16 15.25C32.9934 15.2311 32.8322 15.1788 32.6862 15.0964C32.5401 15.0139 32.4122 14.9029 32.3099 14.7699C32.6999 14.7499 32.88 15.09 33.16 15.25Z" fill="#465076"/>
<path d="M17.72 36.5H18.3901C18.2601 36.86 17.9601 36.62 17.7401 36.68C17.7162 36.6826 17.6923 36.6757 17.6735 36.6607C17.6548 36.6457 17.6427 36.6238 17.6401 36.6C17.6374 36.5761 17.6444 36.5522 17.6594 36.5334C17.6744 36.5147 17.6962 36.5027 17.72 36.5Z" fill="#535C7E"/>
<path d="M19.2499 33.73C19.3799 33.73 19.6099 33.63 19.6299 33.92C19.4699 33.92 19.2799 33.97 19.2499 33.73Z" fill="#475177"/>
<path d="M17.72 36.5V36.66C17.56 36.66 17.37 36.73 17.33 36.48L17.72 36.5Z" fill="#1D2A5A"/>
<path d="M18.86 15.05C18.86 14.82 19.02 14.87 19.15 14.86C19.1 15.05 19.01 15.07 18.86 15.05Z" fill="#485277"/>
<path d="M29.9501 14.86C30.0801 14.86 30.2501 14.86 30.2301 15.05C30.1001 15.06 29.9501 15.05 29.9501 14.86Z" fill="#4B5579"/>
<path d="M29.5599 33.92C29.5599 33.69 29.72 33.74 29.85 33.73C29.84 33.94 29.6999 33.93 29.5599 33.92Z" fill="#4A5478"/>
<path d="M22.5201 26.54C22.5332 26.994 22.4509 27.4457 22.2787 27.866C22.1064 28.2862 21.8481 28.6657 21.5201 28.98C21.2669 29.2121 20.9628 29.3817 20.6322 29.4751C20.3016 29.5686 19.9538 29.5834 19.6165 29.5183C19.2792 29.4532 18.9618 29.31 18.6898 29.1001C18.4178 28.8903 18.1987 28.6197 18.05 28.31C17.7302 27.7908 17.5659 27.1908 17.5765 26.5812C17.5872 25.9715 17.7724 25.3777 18.1101 24.87C18.3435 24.474 18.6975 24.1632 19.1205 23.9833C19.5434 23.8033 20.0129 23.7636 20.4601 23.87C20.9178 23.9645 21.3389 24.1879 21.6738 24.5139C22.0087 24.8399 22.2434 25.2549 22.3501 25.71C22.4272 25.982 22.484 26.2595 22.5201 26.54Z" fill="#000E40"/>
<path d="M26.5899 26.72C26.5663 26.3244 26.6213 25.9281 26.7518 25.554C26.8822 25.1798 27.0855 24.8352 27.3499 24.54C27.6196 24.2163 27.9792 23.9799 28.3832 23.8607C28.7873 23.7414 29.2177 23.7447 29.6199 23.87C30.0568 23.9892 30.4515 24.2285 30.7591 24.5609C31.0667 24.8932 31.2748 25.3052 31.3599 25.75C31.5358 26.3203 31.5454 26.9289 31.3878 27.5045C31.2301 28.0801 30.9118 28.5989 30.4699 29C30.2179 29.2278 29.9162 29.3935 29.5888 29.484C29.2614 29.5744 28.9174 29.5871 28.5842 29.5211C28.251 29.455 27.9379 29.3121 27.6697 29.1035C27.4016 28.895 27.1859 28.6267 27.0399 28.32C26.7554 27.834 26.6005 27.283 26.5899 26.72Z" fill="#000E40"/>
<path d="M35.15 31.37C35.22 31.26 35.24 31.12 35.39 31.03C35.45 31.28 35.31 31.34 35.14 31.37H35.15Z" fill="#B9C3FE"/>
<path d="M29.29 30.7C28.7566 30.7 28.26 30.6033 27.8 30.41C27.34 30.21 26.94 29.94 26.6 29.6C26.2666 29.2533 26.0033 28.85 25.81 28.39C25.6166 27.93 25.52 27.4333 25.52 26.9C25.52 26.3667 25.6166 25.8767 25.81 25.43C26.0033 24.9833 26.2666 24.6 26.6 24.28C26.94 23.9533 27.34 23.7 27.8 23.52C28.26 23.34 28.7566 23.25 29.29 23.25C29.8166 23.25 30.31 23.34 30.77 23.52C31.23 23.7 31.63 23.9533 31.97 24.28C32.31 24.6 32.5766 24.9833 32.77 25.43C32.9633 25.8767 33.06 26.3667 33.06 26.9C33.06 27.4333 32.9633 27.93 32.77 28.39C32.5766 28.85 32.31 29.2533 31.97 29.6C31.63 29.94 31.23 30.21 30.77 30.41C30.31 30.6033 29.8166 30.7 29.29 30.7ZM31.78 26.96C31.78 26.6133 31.7233 26.29 31.61 25.99C31.5033 25.69 31.3433 25.4333 31.13 25.22C30.9166 25.0067 30.6533 24.84 30.34 24.72C30.0333 24.5933 29.6833 24.53 29.29 24.53C28.89 24.53 28.5333 24.5933 28.22 24.72C27.9133 24.84 27.6533 25.0067 27.44 25.22C27.2266 25.4333 27.0633 25.69 26.95 25.99C26.8433 26.29 26.79 26.6133 26.79 26.96C26.79 27.3133 26.8433 27.64 26.95 27.94C27.0633 28.24 27.2266 28.5 27.44 28.72C27.6533 28.94 27.9133 29.1133 28.22 29.24C28.5266 29.3667 28.88 29.43 29.28 29.43C29.68 29.43 30.0333 29.3667 30.34 29.24C30.6533 29.1133 30.9166 28.94 31.13 28.72C31.3433 28.5 31.5033 28.24 31.61 27.94C31.7233 27.64 31.78 27.3133 31.78 26.96Z" fill="#FFFEFE"/>
<path d="M25.1 32.04H33.48V32.24H25.1V32.04Z" fill="#FFFEFE"/>
<a href="https://discord.gg/qhaQTGWB">
<rect fill="black" fill-opacity="0" width="8.38" height="12"/>
</a>
<path d="M20.29 30.7C19.7566 30.7 19.26 30.6033 18.8 30.41C18.34 30.21 17.94 29.94 17.6 29.6C17.2666 29.2533 17.0033 28.85 16.81 28.39C16.6166 27.93 16.52 27.4333 16.52 26.9C16.52 26.3667 16.6166 25.8767 16.81 25.43C17.0033 24.9833 17.2666 24.6 17.6 24.28C17.94 23.9533 18.34 23.7 18.8 23.52C19.26 23.34 19.7566 23.25 20.29 23.25C20.8166 23.25 21.31 23.34 21.77 23.52C22.23 23.7 22.63 23.9533 22.97 24.28C23.31 24.6 23.5766 24.9833 23.77 25.43C23.9633 25.8767 24.06 26.3667 24.06 26.9C24.06 27.4333 23.9633 27.93 23.77 28.39C23.5766 28.85 23.31 29.2533 22.97 29.6C22.63 29.94 22.23 30.21 21.77 30.41C21.31 30.6033 20.8166 30.7 20.29 30.7ZM22.78 26.96C22.78 26.6133 22.7233 26.29 22.61 25.99C22.5033 25.69 22.3433 25.4333 22.13 25.22C21.9166 25.0067 21.6533 24.84 21.34 24.72C21.0333 24.5933 20.6833 24.53 20.29 24.53C19.89 24.53 19.5333 24.5933 19.22 24.72C18.9133 24.84 18.6533 25.0067 18.44 25.22C18.2266 25.4333 18.0633 25.69 17.95 25.99C17.8433 26.29 17.79 26.6133 17.79 26.96C17.79 27.3133 17.8433 27.64 17.95 27.94C18.0633 28.24 18.2266 28.5 18.44 28.72C18.6533 28.94 18.9133 29.1133 19.22 29.24C19.5266 29.3667 19.88 29.43 20.28 29.43C20.68 29.43 21.0333 29.3667 21.34 29.24C21.6533 29.1133 21.9166 28.94 22.13 28.72C22.3433 28.5 22.5033 28.24 22.61 27.94C22.7233 27.64 22.78 27.3133 22.78 26.96Z" fill="white"/>
<path d="M16.1 32.04H24.48V32.24H16.1V32.04Z" fill="white"/>
<a href="https://discord.gg/qhaQTGWB">
<rect fill="black" fill-opacity="0" width="8.38" height="12"/>
</a>
</svg>
