<svg width="103" height="33" viewBox="0 0 103 33" fill="none" xmlns="http://www.w3.org/2000/svg">
<path d="M23.0199 32.17C21.8034 32.2118 20.6021 31.8894 19.5701 31.2439C18.5381 30.5985 17.7224 29.6595 17.2276 28.5474C16.7328 27.4353 16.5814 26.2007 16.7929 25.002C17.0044 23.8033 17.5691 22.695 18.4147 21.8194C19.2602 20.9437 20.348 20.3406 21.5386 20.0874C22.7292 19.8341 23.9683 19.9422 25.097 20.3978C26.2258 20.8534 27.1927 21.6358 27.8738 22.6447C28.5549 23.6535 28.9192 24.8428 28.92 26.06C28.9345 26.8488 28.7934 27.6327 28.5046 28.3669C28.2159 29.1011 27.7852 29.7711 27.2372 30.3386C26.6891 30.9062 26.0346 31.36 25.311 31.6743C24.5873 31.9885 23.8088 32.157 23.0199 32.17ZM23.0199 22.25C22.2614 22.2241 21.5124 22.4254 20.869 22.828C20.2256 23.2306 19.7171 23.8162 19.4087 24.5097C19.1003 25.2032 19.006 25.973 19.138 26.7204C19.27 27.4678 19.6222 28.1588 20.1495 28.7047C20.6768 29.2507 21.3552 29.6266 22.0976 29.7844C22.84 29.9423 23.6125 29.8749 24.3163 29.5907C25.0201 29.3066 25.623 28.8187 26.0477 28.1896C26.4724 27.5605 26.6995 26.819 26.6999 26.06C26.716 25.0671 26.3376 24.1084 25.6477 23.3941C24.9578 22.6799 24.0128 22.2684 23.0199 22.25Z" fill="white"/>
<path d="M26.6399 32.17H19.3999C19.0936 32.1674 18.7908 32.1041 18.509 31.9839C18.2272 31.8636 17.972 31.6887 17.7582 31.4693C17.5443 31.2499 17.376 30.9903 17.263 30.7055C17.1501 30.4207 17.0947 30.1163 17.1 29.81V22.31C17.0947 22.0053 17.1494 21.7026 17.2612 21.4191C17.3729 21.1356 17.5394 20.8768 17.7511 20.6577C17.9628 20.4385 18.2156 20.2632 18.4951 20.1418C18.7746 20.0204 19.0753 19.9552 19.38 19.95H26.62C26.9247 19.9552 27.2253 20.0204 27.5048 20.1418C27.7843 20.2632 28.0371 20.4385 28.2488 20.6577C28.4606 20.8768 28.627 21.1356 28.7388 21.4191C28.8505 21.7026 28.9052 22.0053 28.8999 22.31V29.81C28.9107 30.4219 28.6792 31.0133 28.2559 31.4554C27.8326 31.8974 27.2518 32.1542 26.6399 32.17ZM19.3999 22.25L19.34 29.81L26.6399 29.87C26.6559 29.87 26.6711 29.8637 26.6824 29.8524C26.6936 29.8412 26.6999 29.8259 26.6999 29.81V22.31L19.3999 22.25Z" fill="white"/>
<path d="M78.64 13.21C77.4211 13.2538 76.2169 12.9325 75.1819 12.2872C74.147 11.642 73.3285 10.7022 72.8314 9.58844C72.3342 8.47473 72.1813 7.2379 72.392 6.03662C72.6027 4.83533 73.1675 3.72441 74.014 2.84637C74.8605 1.96833 75.95 1.36323 77.1428 1.1087C78.3355 0.854176 79.5772 0.96181 80.7083 1.41784C81.8395 1.87388 82.8086 2.65751 83.4913 3.66815C84.174 4.67879 84.5391 5.87034 84.5399 7.08996C84.5558 7.87959 84.4157 8.66462 84.1275 9.39996C83.8393 10.1353 83.4088 10.8065 82.8607 11.3751C82.3125 11.9436 81.6576 12.3984 80.9333 12.7133C80.209 13.0282 79.4296 13.197 78.64 13.21ZM78.64 3.27997C77.8814 3.25407 77.1324 3.45531 76.489 3.85791C75.8455 4.2605 75.337 4.8461 75.0286 5.53961C74.7202 6.23312 74.626 7.00294 74.758 7.75036C74.89 8.49779 75.2422 9.18876 75.7695 9.73468C76.2968 10.2806 76.9751 10.6566 77.7175 10.8145C78.4599 10.9723 79.2325 10.9048 79.9363 10.6207C80.6401 10.3365 81.243 9.84866 81.6677 9.2196C82.0923 8.59055 82.3194 7.84895 82.3199 7.08996C82.3359 6.09707 81.9575 5.13839 81.2676 4.42413C80.5778 3.70988 79.6328 3.29837 78.64 3.27997Z" fill="white"/>
<path d="M82.26 13.21H75.0199C74.4037 13.1968 73.8178 12.9401 73.3905 12.4959C72.9632 12.0517 72.7293 11.4562 72.74 10.84V3.33997C72.7347 3.03529 72.7894 2.73254 72.9012 2.44904C73.0129 2.16553 73.1794 1.90684 73.3911 1.68768C73.6028 1.46853 73.8556 1.29324 74.1351 1.17181C74.4146 1.05039 74.7153 0.985188 75.0199 0.97998H82.26C82.5647 0.985188 82.8653 1.05039 83.1448 1.17181C83.4242 1.29324 83.6771 1.46853 83.8888 1.68768C84.1005 1.90684 84.267 2.16553 84.3788 2.44904C84.4905 2.73254 84.5452 3.03529 84.5399 3.33997V10.84C84.5506 11.4562 84.3167 12.0517 83.8894 12.4959C83.4621 12.9401 82.8762 13.1968 82.26 13.21ZM75.0199 3.27997L74.9599 10.84L82.26 10.9C82.2759 10.9 82.2911 10.8936 82.3024 10.8824C82.3136 10.8711 82.3199 10.8559 82.3199 10.84V3.33997L75.0199 3.27997Z" fill="white"/>
<path d="M23.0199 13.21C21.8011 13.2538 20.597 12.9325 19.5621 12.2872C18.5271 11.642 17.7085 10.7022 17.2114 9.58844C16.7143 8.47473 16.5613 7.2379 16.772 6.03662C16.9827 4.83533 17.5475 3.72441 18.394 2.84637C19.2405 1.96833 20.33 1.36323 21.5228 1.1087C22.7155 0.854176 23.9571 0.96181 25.0883 1.41784C26.2195 1.87388 27.1886 2.65751 27.8713 3.66815C28.554 4.67879 28.9192 5.87034 28.92 7.08996C28.9359 7.87959 28.7957 8.66462 28.5076 9.39996C28.2194 10.1353 27.7889 10.8065 27.2408 11.3751C26.6926 11.9436 26.0376 12.3984 25.3133 12.7133C24.589 13.0282 23.8096 13.197 23.0199 13.21ZM23.0199 3.27997C22.2614 3.25407 21.5124 3.45531 20.869 3.85791C20.2256 4.2605 19.7171 4.8461 19.4087 5.53961C19.1003 6.23312 19.006 7.00294 19.138 7.75036C19.27 8.49779 19.6222 9.18876 20.1495 9.73468C20.6768 10.2806 21.3552 10.6566 22.0976 10.8145C22.84 10.9723 23.6125 10.9048 24.3163 10.6207C25.0201 10.3365 25.623 9.84866 26.0477 9.2196C26.4724 8.59055 26.6995 7.84895 26.6999 7.08996C26.716 6.09707 26.3376 5.13839 25.6477 4.42413C24.9578 3.70988 24.0128 3.29837 23.0199 3.27997Z" fill="white"/>
<path d="M5.90002 2.13H3.68005V12.05H5.90002V2.13Z" fill="white"/>
<path d="M9.57996 5.94H0V8.23999H9.57996V5.94Z" fill="white"/>
<path d="M45.5 32.17H38.32C38.0114 32.1648 37.7068 32.0988 37.4237 31.9759C37.1406 31.853 36.8844 31.6754 36.6699 31.4535C36.4554 31.2316 36.2867 30.9695 36.1735 30.6824C36.0603 30.3952 36.0047 30.0886 36.01 29.78V22.34C36.0047 22.0313 36.0603 21.7247 36.1735 21.4376C36.2867 21.1504 36.4554 20.8884 36.6699 20.6664C36.8844 20.4445 37.1406 20.267 37.4237 20.1441C37.7068 20.0212 38.0114 19.9552 38.32 19.95H45.5C45.8087 19.9552 46.1132 20.0212 46.3963 20.1441C46.6795 20.267 46.9356 20.4445 47.1501 20.6664C47.3646 20.8884 47.5333 21.1504 47.6465 21.4376C47.7598 21.7247 47.8153 22.0313 47.81 22.34V29.78C47.8153 30.0886 47.7598 30.3952 47.6465 30.6824C47.5333 30.9695 47.3646 31.2316 47.1501 31.4535C46.9356 31.6754 46.6795 31.853 46.3963 31.9759C46.1132 32.0988 45.8087 32.1648 45.5 32.17ZM38.32 22.25L38.23 29.78L45.5 29.87C45.5239 29.87 45.5468 29.8605 45.5636 29.8436C45.5805 29.8267 45.59 29.8038 45.59 29.78V22.34L38.32 22.25Z" fill="white"/>
<path d="M60.0999 13.21C58.8811 13.2538 57.6769 12.9325 56.642 12.2872C55.607 11.642 54.7885 10.7022 54.2914 9.58844C53.7942 8.47473 53.6412 7.2379 53.8519 6.03662C54.0626 4.83533 54.6274 3.72441 55.4739 2.84637C56.3204 1.96833 57.4099 1.36323 58.6027 1.1087C59.7955 0.854176 61.0371 0.96181 62.1683 1.41784C63.2994 1.87388 64.2685 2.65751 64.9512 3.66815C65.6339 4.67879 65.9991 5.87034 65.9999 7.08996C66.0158 7.87959 65.8757 8.66462 65.5875 9.39996C65.2993 10.1353 64.8688 10.8065 64.3207 11.3751C63.7725 11.9436 63.1175 12.3984 62.3932 12.7133C61.6689 13.0282 60.8896 13.197 60.0999 13.21ZM60.0999 3.27997C59.341 3.25206 58.5911 3.45158 57.9464 3.8529C57.3017 4.25423 56.7916 4.83908 56.4817 5.53235C56.1717 6.22561 56.076 6.99566 56.2068 7.74371C56.3376 8.49176 56.689 9.18366 57.2159 9.73059C57.7427 10.2775 58.421 10.6546 59.1636 10.8133C59.9062 10.972 60.6793 10.9051 61.3837 10.6213C62.0881 10.3375 62.6916 9.84974 63.1168 9.22052C63.542 8.5913 63.7694 7.84936 63.7699 7.08996C63.786 6.09877 63.4089 5.14152 62.7212 4.42755C62.0334 3.71358 61.091 3.30098 60.0999 3.27997Z" fill="white"/>
<path d="M96.87 13.21C95.6511 13.2538 94.447 12.9325 93.4121 12.2872C92.3771 11.642 91.5585 10.7022 91.0614 9.58844C90.5643 8.47473 90.4112 7.2379 90.6219 6.03662C90.8326 4.83533 91.3975 3.72441 92.244 2.84637C93.0905 1.96833 94.18 1.36323 95.3728 1.1087C96.5656 0.854176 97.8072 0.96181 98.9383 1.41784C100.069 1.87388 101.039 2.65751 101.721 3.66815C102.404 4.67879 102.769 5.87034 102.77 7.08996C102.786 7.87959 102.646 8.66462 102.358 9.39996C102.069 10.1353 101.639 10.8065 101.091 11.3751C100.543 11.9436 99.8876 12.3984 99.1633 12.7133C98.439 13.0282 97.6597 13.197 96.87 13.21ZM96.87 3.27997C96.1111 3.25206 95.3611 3.45158 94.7164 3.8529C94.0717 4.25423 93.5618 4.83908 93.2518 5.53235C92.9419 6.22561 92.8461 6.99566 92.9769 7.74371C93.1077 8.49176 93.4591 9.18366 93.9859 9.73059C94.5128 10.2775 95.1911 10.6546 95.9337 10.8133C96.6763 10.972 97.4494 10.9051 98.1538 10.6213C98.8582 10.3375 99.4617 9.84974 99.8868 9.22052C100.312 8.5913 100.539 7.84936 100.54 7.08996C100.556 6.09877 100.179 5.14152 99.4913 4.42755C98.8036 3.71358 97.8611 3.30098 96.87 3.27997Z" fill="white"/>
<path d="M43.0199 2.13H40.7999V12.05H43.0199V2.13Z" fill="white"/>
<path d="M46.69 5.94H37.12V8.23999H46.69V5.94Z" fill="white"/>
<path d="M61.2399 21.1H59.0199V31.02H61.2399V21.1Z" fill="white"/>
<path d="M64.93 24.91H55.35V27.21H64.93V24.91Z" fill="white"/>
</svg>
