<svg width="232" height="345" viewBox="0 0 232 345" fill="none" xmlns="http://www.w3.org/2000/svg">
<path d="M181.226 231.207H184.082V240.557C184.082 241.847 183.913 242.976 183.575 243.943C183.238 244.895 182.708 245.685 181.986 246.315C181.265 246.944 180.328 247.413 179.177 247.72C178.041 248.027 176.659 248.18 175.031 248.18C173.419 248.18 172.037 248.027 170.886 247.72C169.75 247.413 168.821 246.944 168.099 246.315C167.378 245.685 166.848 244.895 166.51 243.943C166.172 242.976 166.004 241.847 166.004 240.557V231.207H169.02V240.557C169.02 241.402 169.12 242.123 169.32 242.722C169.535 243.321 169.873 243.812 170.333 244.196C170.809 244.58 171.439 244.864 172.222 245.048C173.005 245.217 173.972 245.302 175.123 245.302C176.275 245.302 177.242 245.217 178.025 245.048C178.808 244.864 179.43 244.58 179.891 244.196C180.367 243.812 180.704 243.321 180.904 242.722C181.119 242.123 181.226 241.402 181.226 240.557V231.207ZM206.643 247.95L203.442 236.182L198.698 247.075C198.529 247.428 198.322 247.704 198.076 247.904C197.846 248.088 197.554 248.18 197.201 248.18C196.51 248.18 196.011 247.812 195.704 247.075L190.983 236.182L187.781 247.95H184.903L189.209 232.197C189.409 231.399 189.893 231 190.66 231C190.967 231 191.251 231.084 191.512 231.253C191.789 231.422 191.996 231.668 192.134 231.99L197.293 243.828L202.452 231.99C202.728 231.33 203.196 231 203.856 231C204.563 231 205.031 231.399 205.261 232.197L209.545 247.95H206.643Z" fill="black"/>
<path d="M221.81 0.839996H10.06C4.81882 0.839996 0.570007 5.08882 0.570007 10.33V334.04C0.570007 339.281 4.81882 343.53 10.06 343.53H221.81C227.051 343.53 231.3 339.281 231.3 334.04V10.33C231.3 5.08882 227.051 0.839996 221.81 0.839996Z" fill="#C11EBD" stroke="#C11EBD" stroke-miterlimit="10"/>
<path d="M221.23 172.21C221.23 221.757 221.23 271.307 221.23 320.86C221.306 323.816 220.457 326.721 218.8 329.17C217.002 331.824 214.277 333.711 211.16 334.46C209.942 334.75 208.692 334.888 207.44 334.87H23.16C20.3676 334.911 17.6361 334.052 15.37 332.42C13.9117 331.383 12.6781 330.061 11.7433 328.536C10.8085 327.01 10.1917 325.31 9.93001 323.54C9.79871 322.626 9.74186 321.703 9.76001 320.78C9.76001 221.653 9.76001 122.523 9.76001 23.39C9.7033 20.258 10.7077 17.1988 12.61 14.71C14.4571 12.2607 17.1283 10.5628 20.13 9.92999C21.2235 9.68941 22.3404 9.57203 23.46 9.58H207.83C210.559 9.53861 213.232 10.3573 215.47 11.92C216.928 12.93 218.169 14.2206 219.122 15.7161C220.075 17.2116 220.72 18.8822 221.02 20.63C221.18 21.5713 221.25 22.5255 221.23 23.48C221.223 73.06 221.223 122.637 221.23 172.21Z" fill="#B332E6"/>
<path d="M220 172.24V321.09C220.043 322.847 219.708 324.593 219.018 326.209C218.327 327.826 217.298 329.275 216 330.46C214.949 331.469 213.71 332.26 212.352 332.789C210.995 333.318 209.546 333.573 208.09 333.54C207.89 333.54 207.69 333.54 207.49 333.54H23.42C22.2642 333.571 21.1089 333.46 19.98 333.21C17.6765 332.575 15.6096 331.28 14.0349 329.483C12.4602 327.686 11.4467 325.467 11.12 323.1C11.0185 322.214 10.9717 321.322 10.98 320.43C10.98 221.53 10.98 122.627 10.98 23.72C10.88 20.6538 11.8802 17.653 13.8 15.26C14.761 14.0271 15.9691 13.0086 17.3468 12.2698C18.7244 11.5311 20.2412 11.0883 21.8 10.97C22.3 10.97 22.8 10.97 23.29 10.97H207.73C209.085 10.9132 210.439 11.096 211.73 11.51C213.859 12.214 215.749 13.5007 217.184 15.224C218.619 16.9474 219.543 19.0384 219.85 21.26C219.973 22.0773 220.027 22.9036 220.01 23.73L220 172.24Z" fill="#050C30"/>
<path d="M176.7 103.38C174.58 103.05 173.18 104.24 172 105.73C170.217 107.985 168.694 110.434 167.46 113.03C165.825 116.451 164.662 120.077 164 123.81C162.891 129.875 163.179 136.113 164.84 142.05C165.547 144.559 166.464 147.004 167.58 149.36C169.981 154.547 171.663 160.038 172.58 165.68C173.382 170.601 173.737 175.585 173.64 180.57C173.44 191.803 173.347 203.03 173.36 214.25C173.36 221.18 173.43 228.12 173.45 235.05C173.45 242.25 173.52 249.45 173.5 256.65C173.584 260.125 173.003 263.583 171.79 266.84C169.79 271.84 166.28 274.75 160.79 275.21C158.231 275.448 155.654 275.032 153.3 274C152.85 273.82 152.42 273.6 151.99 273.38C149.736 272.019 147.998 269.947 147.05 267.49C145.974 264.821 145.342 261.993 145.18 259.12C144.91 255.78 145.03 252.45 145.03 249.12C145.03 224.84 145.03 200.57 145.03 176.29C145.156 169.396 143.174 162.628 139.35 156.89C137.109 153.6 134.147 150.864 130.69 148.89C130.08 148.58 129.52 148.19 128.91 147.89C128.8 147.77 128.61 147.8 128.5 147.69C128.36 147.55 128.16 147.56 127.99 147.48C123.616 145.833 118.909 145.266 114.27 145.83C110.516 146.163 106.885 147.341 103.651 149.275C100.416 151.21 97.6602 153.85 95.59 157C92.5571 161.629 90.7031 166.93 90.19 172.44C89.9101 175.498 89.7999 178.57 89.86 181.64C89.86 192.307 89.86 203.007 89.86 213.74C89.86 218.52 89.86 223.31 89.86 228.1C89.9144 231.709 89.234 235.292 87.86 238.63C87.0431 240.586 85.7874 242.327 84.19 243.72C81.36 246.19 78.01 246.81 74.4 246.56C72.9197 246.442 71.4695 246.077 70.11 245.48C69.97 245.37 69.78 245.39 69.64 245.27C69.34 245.1 69.01 245.01 68.72 244.83C66.4068 243.374 64.6306 241.205 63.66 238.65C62.2751 235.384 61.5772 231.868 61.61 228.32C61.61 173.22 61.61 118.117 61.61 63.01C61.6612 60.4949 61.2054 57.9952 60.27 55.66C59.3874 53.6252 58.0129 51.8417 56.27 50.47C51.55 46.61 49.27 41.47 48.4 35.59C48.2033 34.3167 48.1363 33.0268 48.2 31.74C48.2 30.74 48.48 30.53 49.47 30.51C51.36 30.51 53.24 30.51 55.12 30.51C59.94 30.41 64.76 30.41 69.57 30.27C73.2 30.17 76.84 30.27 80.46 30.1C87.46 29.78 94.39 29.96 101.35 29.94C106.93 29.94 112.5 30.17 118.06 30.45C121.54 30.63 125.06 30.85 128.48 31.28H128.82C129.083 31.3402 129.351 31.3804 129.62 31.4C130.13 31.4 130.62 31.59 131.13 31.67H131.44C131.89 31.85 132.37 31.82 132.82 31.97C135.07 32.73 137.38 33.3 139.6 34.13C144.932 36.2069 149.82 39.2819 154 43.19C157.783 46.7364 161.045 50.8 163.69 55.26C165.566 58.405 167.201 61.6878 168.58 65.08C168.89 65.84 169.18 66.62 169.47 67.39C170.878 71.1469 173.301 74.4391 176.47 76.9C177.68 77.9 178.93 78.79 180.16 79.72C181.263 80.5706 182.188 81.6309 182.88 82.84C184.432 85.499 185.4 88.4579 185.72 91.52C186.085 94.8049 186.015 98.1236 185.51 101.39C185.398 102.31 185.128 103.203 184.71 104.03C184.448 104.666 183.948 105.175 183.317 105.449C182.687 105.723 181.974 105.742 181.33 105.5C180.83 105.36 180.33 105.13 179.86 104.94C179.696 104.856 179.521 104.796 179.34 104.76C178.517 104.198 177.631 103.735 176.7 103.38Z" fill="#F7B600"/>
<path d="M120.4 160L121.63 160.39C123.477 160.971 125.173 161.951 126.599 163.261C128.025 164.571 129.145 166.179 129.88 167.97C131.177 171.016 131.785 174.312 131.66 177.62C131.77 190.7 131.87 203.78 131.81 216.86C131.77 226.267 131.7 235.677 131.6 245.09C131.622 247.773 131.08 250.43 130.01 252.89C127.8 257.72 124.12 260.5 118.71 260.68C116.03 260.803 113.361 260.275 110.93 259.14C110.465 258.968 110.013 258.761 109.58 258.52C105.83 256.22 104.32 252.59 103.64 248.52C103.476 247.407 103.393 246.285 103.39 245.16C103.14 237.11 103.15 229.06 103.23 221.01C103.23 218.21 103.48 215.41 103.38 212.61C103 201.29 103.25 189.97 103.22 178.61C103.07 174.938 103.708 171.276 105.09 167.87C107.4 162.72 112.09 159.45 117.36 159.52C117.987 159.551 118.611 159.618 119.23 159.72C119.62 159.8 120 159.92 120.4 160Z" fill="#F7B600"/>
<path d="M128.84 31.4L121.93 30.91C120.45 30.81 118.93 30.7 117.48 30.62C107.98 30.16 98.48 30.09 88.96 30.19C82.96 30.2567 76.9867 30.3433 71.04 30.45C63.74 30.6 56.45 30.73 49.15 30.76C48.32 30.76 48.32 30.76 48.34 31.56C48.3188 35.7355 49.2526 39.8606 51.07 43.62C51.8433 45.1903 52.8329 46.6445 54.01 47.94C54.8019 48.8251 55.6611 49.6476 56.58 50.4C58.0349 51.5753 59.2374 53.0323 60.1155 54.6836C60.9936 56.335 61.5291 58.1466 61.69 60.01C61.8681 61.754 61.9416 63.5072 61.91 65.26C61.91 74.64 61.91 84.01 61.91 93.39C61.91 128.67 61.91 163.947 61.91 199.22C61.91 208.96 61.91 218.71 61.91 228.45C61.9018 231.792 62.5331 235.105 63.77 238.21C64.8282 240.897 66.6541 243.214 69.02 244.87C69.08 244.87 69.1 244.96 69.08 245C69.06 245.04 69.03 245.06 69.01 245.06C67.1312 244.315 65.4969 243.061 64.29 241.44C62.1134 238.385 60.8038 234.799 60.5 231.06C60.302 229.287 60.2185 227.504 60.25 225.72C60.25 212.83 60.3 199.95 60.25 187.07C60.15 166.45 60.19 145.84 60.25 125.23C60.25 115.81 60.25 106.397 60.25 96.99C60.25 85.49 60.25 73.9933 60.25 62.5C60.3124 60.0813 59.9049 57.6735 59.05 55.41C58.202 53.2826 56.8253 51.4068 55.05 49.96C53.316 48.5797 51.8049 46.9405 50.57 45.1C48.8946 42.4406 47.7471 39.4834 47.19 36.39C46.8855 34.6349 46.705 32.8605 46.65 31.08C46.65 30.22 46.65 30.21 47.48 30.2C51.22 30.2 54.95 30.2 58.68 30.13C65.74 30.03 72.8033 29.9067 79.87 29.76C84.92 29.67 89.97 29.51 95.02 29.54C101.56 29.54 108.1 29.78 114.63 30.05C118.45 30.21 122.27 30.4633 126.09 30.81C126.68 30.86 127.27 30.96 127.86 31.03C128.04 31.13 128.27 31.03 128.45 31.16H128.83C128.83 31.21 128.89 31.26 128.83 31.3C128.77 31.34 128.86 31.4 128.84 31.4Z" fill="#B332E6"/>
<path d="M52.34 315.05C51.48 315.15 50.63 315.05 49.77 315.1C49.6085 315.113 49.4472 315.074 49.309 314.99C49.1707 314.905 49.0626 314.779 49 314.63C48.58 313.85 48 313.13 47.68 312.32C47.5842 312.044 47.3917 311.812 47.138 311.666C46.8843 311.521 46.5866 311.473 46.3 311.53C44.88 311.53 43.47 311.53 42.05 311.53H40.9C41.1535 310.858 41.4894 310.22 41.9 309.63C42.04 309.35 42.3 309.33 42.57 309.33C43.33 309.33 44.09 309.33 44.85 309.33C45.1908 309.383 45.5396 309.33 45.85 309.18L43.57 305.29C42.9 305.12 42.83 305.71 42.63 306.07C41.17 308.69 39.6867 311.293 38.18 313.88C37.9735 314.329 37.6774 314.73 37.31 315.06C35.31 315.17 33.22 315.06 31.18 315.06C31.0504 315.067 30.921 315.042 30.8039 314.986C30.6867 314.93 30.5856 314.845 30.51 314.74C29.69 313.74 28.69 312.83 27.91 311.74C27.7809 311.55 27.6035 311.398 27.3961 311.3C27.1887 311.201 26.9587 311.16 26.73 311.18C25.48 311.18 24.23 311.18 22.97 311.18C22.49 311.18 22.34 311.01 22.35 310.54C22.41 308.3 22.01 308.7 24.1 308.66C25.39 308.66 26.67 308.66 27.96 308.66C29.64 308.66 30.34 307.95 30.41 306.25C30.42 306.087 30.42 305.923 30.41 305.76C30.4305 305.469 30.3871 305.177 30.2827 304.904C30.1784 304.632 30.0157 304.386 29.8061 304.183C29.5965 303.98 29.345 303.825 29.0693 303.73C28.7935 303.634 28.5002 303.6 28.21 303.63C26.07 303.63 23.93 303.63 21.78 303.63C21.12 303.95 21.14 304.56 21.14 305.15V313.54C21.2026 314.033 21.1192 314.534 20.9 314.98C20.24 314.98 19.58 314.98 18.9 314.98C18.41 314.98 18.23 314.78 18.29 314.33C18.29 314.23 18.29 314.13 18.29 314.03V301.86C18.29 300.95 18.29 300.94 19.2 300.94C22.57 300.94 25.94 300.94 29.3 300.94C29.55 301.1 29.84 300.94 30.1 301.05C30.36 301.16 30.62 301.26 30.85 301.41C31.5491 301.758 32.1342 302.299 32.5364 302.969C32.9385 303.639 33.141 304.409 33.12 305.19C33.2184 306.076 33.1915 306.971 33.04 307.85C32.7973 308.855 32.2099 309.743 31.38 310.36C31.09 310.59 30.8 310.85 31.19 311.24C32.19 312.24 33.12 313.24 34.19 314.16C34.253 314.212 34.3277 314.249 34.4078 314.266C34.4878 314.284 34.5709 314.282 34.65 314.26C35.65 312.59 36.65 310.92 37.65 309.26C39.12 306.73 40.57 304.18 42.05 301.65C42.45 300.97 42.96 300.42 43.88 300.71C44.44 300.78 44.7 301.21 44.95 301.63C47.41 305.78 49.78 309.97 52.21 314.14C52.33 314.41 52.58 314.7 52.34 315.05Z" fill="#F7B600"/>
<path d="M130.46 148.7C132.306 149.527 133.997 150.663 135.46 152.06C138.611 154.897 141.051 158.435 142.58 162.39C144.488 167.293 145.422 172.52 145.33 177.78C145.33 201.593 145.33 225.403 145.33 249.21C145.33 252.54 145.25 255.88 145.46 259.21C145.595 261.916 146.172 264.581 147.17 267.1C148.179 269.667 149.939 271.87 152.22 273.42C152.28 273.47 152.3 273.52 152.27 273.57C152.24 273.62 152.27 273.64 152.21 273.64C150.223 272.873 148.52 271.516 147.33 269.75C145.299 266.758 144.117 263.271 143.91 259.66C143.757 257.884 143.693 256.102 143.72 254.32C143.72 231.34 143.72 208.36 143.72 185.38C143.72 182.38 143.72 179.3 143.72 176.26C143.724 170.434 142.415 164.681 139.89 159.43C139.345 158.335 138.72 157.283 138.02 156.28C136.874 154.587 135.531 153.037 134.02 151.66C132.859 150.634 131.618 149.701 130.31 148.87C130.24 148.71 130.26 148.6 130.46 148.7Z" fill="#B332E6"/>
<path d="M119.33 159.84C117.487 159.692 115.633 159.848 113.84 160.3C109.75 161.5 107.1 164.3 105.35 168.03C103.8 171.38 103.57 174.96 103.53 178.57C103.41 188.64 103.53 198.71 103.53 208.77C103.53 211.91 103.62 215.04 103.53 218.17C103.53 223.17 103.45 228.17 103.47 233.22C103.47 237.35 103.56 241.47 103.62 245.6C103.633 248.081 104.126 250.536 105.07 252.83C105.845 254.816 107.157 256.547 108.86 257.83C109.17 258.06 109.47 258.33 109.77 258.58C109.794 258.598 109.813 258.623 109.822 258.652C109.831 258.681 109.83 258.712 109.82 258.74C109.82 258.74 109.82 258.81 109.76 258.81C107.033 257.637 104.85 255.476 103.65 252.76C102.571 250.272 102.006 247.592 101.99 244.88C101.76 236.63 101.9 228.38 101.87 220.13C101.84 211.88 101.82 203.62 101.8 195.37C101.8 188.8 101.74 182.23 101.9 175.66C101.894 171.945 102.934 168.302 104.9 165.15C105.682 163.923 106.674 162.843 107.83 161.96C109.307 160.811 111.012 159.99 112.831 159.552C114.65 159.114 116.542 159.069 118.38 159.42C118.669 159.487 118.953 159.574 119.23 159.68C119.423 159.713 119.457 159.767 119.33 159.84Z" fill="#B332E6"/>
<path d="M125 315C121.44 315.16 117.88 315 114.32 315.07C113.82 315.07 113.57 314.92 113.64 314.39C113.71 313.86 113.35 312.94 113.81 312.49C114.27 312.04 114.94 312.38 115.53 312.37H123.15C123.512 312.37 123.873 312.34 124.23 312.28C124.623 312.212 124.976 312 125.222 311.686C125.468 311.372 125.588 310.978 125.56 310.58C125.582 310.179 125.445 309.785 125.18 309.484C124.914 309.183 124.541 308.998 124.14 308.97C123.777 308.945 123.413 308.945 123.05 308.97H118.5C118.006 308.975 117.512 308.955 117.02 308.91C116.505 308.89 116 308.764 115.536 308.539C115.072 308.315 114.659 307.997 114.324 307.605C113.989 307.214 113.738 306.757 113.588 306.264C113.437 305.771 113.39 305.252 113.45 304.74C113.431 304.248 113.512 303.758 113.69 303.299C113.867 302.84 114.136 302.422 114.481 302.071C114.825 301.72 115.238 301.443 115.694 301.257C116.149 301.071 116.638 300.98 117.13 300.99C120.55 300.89 123.98 300.9 127.41 300.99C127.657 301.388 127.788 301.847 127.788 302.315C127.788 302.783 127.657 303.242 127.41 303.64L120.89 303.69H117.64C116.97 303.9 116.44 304.24 116.42 305.02C116.4 305.8 117 306.33 117.74 306.62L125.05 306.69C125.3 306.85 125.6 306.69 125.86 306.81C126.12 306.93 126.4 307.03 126.64 307.2C127.21 307.639 127.664 308.211 127.963 308.865C128.262 309.52 128.397 310.238 128.356 310.956C128.314 311.674 128.098 312.372 127.726 312.988C127.354 313.604 126.837 314.119 126.22 314.49C125.91 314.85 125.43 314.84 125 315Z" fill="#F7B600"/>
<path d="M209.25 315C205.69 315.16 202.13 315 198.56 315.07C198.06 315.07 197.82 314.92 197.88 314.39C197.94 313.86 197.6 312.94 198.05 312.49C198.5 312.04 199.19 312.38 199.78 312.37H207.4C207.762 312.37 208.123 312.34 208.48 312.28C208.872 312.212 209.225 311.999 209.469 311.685C209.713 311.371 209.831 310.977 209.8 310.58C209.825 310.178 209.689 309.783 209.423 309.481C209.157 309.18 208.782 308.996 208.38 308.97C208.02 308.945 207.66 308.945 207.3 308.97H202.74C202.246 308.975 201.752 308.955 201.26 308.91C200.745 308.889 200.241 308.761 199.778 308.536C199.314 308.311 198.902 307.993 198.567 307.602C198.232 307.211 197.982 306.755 197.831 306.262C197.68 305.77 197.632 305.252 197.69 304.74C197.672 304.249 197.755 303.759 197.933 303.301C198.11 302.842 198.38 302.425 198.724 302.074C199.068 301.723 199.48 301.446 199.935 301.26C200.39 301.073 200.878 300.982 201.37 300.99C204.8 300.89 208.23 300.9 211.66 300.99C211.905 301.389 212.035 301.847 212.035 302.315C212.035 302.783 211.905 303.241 211.66 303.64L205.15 303.69H201.89C201.23 303.9 200.69 304.24 200.67 305.02C200.65 305.8 201.26 306.33 201.99 306.62L209.3 306.69C209.55 306.85 209.85 306.69 210.11 306.81C210.37 306.93 210.65 307.03 210.89 307.2C211.46 307.639 211.914 308.211 212.213 308.865C212.512 309.52 212.647 310.238 212.606 310.956C212.564 311.674 212.348 312.372 211.976 312.988C211.604 313.604 211.087 314.119 210.47 314.49C210.13 314.85 209.65 314.84 209.25 315Z" fill="#F7B600"/>
<path d="M191 315C189.49 315.13 188 315 186.45 315.07C185.254 315.046 184.087 314.7 183.07 314.07C181.736 313.312 180.731 312.086 180.25 310.63C179.585 308.883 179.554 306.958 180.16 305.19C180.563 303.962 181.346 302.895 182.396 302.142C183.446 301.388 184.708 300.989 186 301C187.68 301 189.36 301 191.05 301C191.31 301.15 191.61 301 191.88 301.12C192.15 301.24 192.62 301.35 192.96 301.54C194.044 302.045 194.957 302.855 195.587 303.871C196.218 304.887 196.538 306.065 196.51 307.26C196.626 308.712 196.364 310.169 195.75 311.49C195.176 312.764 194.15 313.78 192.87 314.34C192.62 314.5 192.31 314.51 192.09 314.72C191.87 314.93 191.36 314.87 191 315Z" fill="#F7B600"/>
<path d="M168.45 315C165.61 315.15 162.77 315.06 159.94 315.06C159.26 315.06 159.24 315.06 159.24 314.31V301.66C159.24 300.96 159.24 300.94 159.96 300.94H168.48C168.72 301.1 169 300.94 169.25 301.04C169.386 301.166 169.565 301.234 169.75 301.23C170.06 301.36 170.37 301.49 170.67 301.64C171.664 302.17 172.492 302.964 173.064 303.934C173.636 304.905 173.928 306.014 173.91 307.14C174.036 308.621 173.777 310.108 173.16 311.46C172.476 312.86 171.291 313.953 169.84 314.52C169.387 314.71 168.923 314.87 168.45 315Z" fill="#F7B600"/>
<path d="M87.44 315C87.0679 315.086 86.6784 315.059 86.3218 314.922C85.9653 314.785 85.6581 314.544 85.44 314.23C83.28 312.03 81.1 309.85 78.94 307.66C78.41 307.13 77.87 306.6 77.34 306.06C76.68 306.06 76.82 306.51 76.82 306.87C76.82 309.12 76.82 311.36 76.82 313.6C76.8973 314.094 76.8019 314.599 76.55 315.03H74.55C74.18 315.03 74.01 314.88 74.03 314.5C74.03 314.31 74.03 314.11 74.03 313.91V303.36C74.03 303.13 74.03 302.9 74.03 302.67C74.1 301.25 74.51 300.89 75.95 300.99C76.3644 301.098 76.7349 301.332 77.01 301.66C78.7 303.4 80.46 305.08 82.11 306.87C83.11 307.96 84.23 308.87 85.2 310.03C85.2585 310.085 85.312 310.145 85.36 310.21L85.42 310.31C85.4355 310.357 85.4592 310.401 85.49 310.44C85.49 310.49 85.49 310.44 85.49 310.39C85.4603 310.289 85.4603 310.181 85.49 310.08C85.5181 310.013 85.5589 309.952 85.61 309.9C85.61 307.2 85.61 304.5 85.61 301.8C85.61 300.95 85.61 300.94 86.47 300.94C87.03 300.94 87.59 300.94 88.15 300.94C88.2835 301.085 88.3825 301.259 88.4396 301.447C88.4968 301.636 88.5106 301.835 88.48 302.03C88.48 305.67 88.48 309.31 88.48 312.96C88.5363 313.366 88.4668 313.779 88.2808 314.144C88.0948 314.508 87.8013 314.807 87.44 315Z" fill="#F7B600"/>
<path d="M63.66 311.21C61.75 311.21 59.85 311.21 57.94 311.21C57.44 311.21 57.31 311.02 57.33 310.57C57.36 310.077 57.36 309.583 57.33 309.09C57.33 308.66 57.49 308.5 57.91 308.5C59.26 308.5 60.61 308.5 61.91 308.5C62.34 308.5 62.77 308.5 63.19 308.5C63.7614 308.409 64.2816 308.118 64.6573 307.678C65.0329 307.238 65.2393 306.679 65.2393 306.1C65.2393 305.522 65.0329 304.962 64.6573 304.522C64.2816 304.082 63.7614 303.791 63.19 303.7C62.73 303.7 62.27 303.7 61.81 303.7H56.67C56.1 304.12 56.17 304.7 56.17 305.32C56.17 308.06 56.17 310.8 56.17 313.53C56.2556 314.058 56.1453 314.598 55.86 315.05C55.1706 315.09 54.4794 315.09 53.79 315.05C53.41 315.05 53.24 314.91 53.27 314.53C53.27 314.4 53.27 314.26 53.27 314.13V301.82C53.27 300.95 53.27 300.94 54.12 300.94H64C64.37 301.07 64.78 301.01 65.13 301.22C65.7465 301.406 66.3061 301.745 66.757 302.204C67.208 302.664 67.5357 303.23 67.71 303.85C68.0382 304.804 68.1387 305.822 68.0032 306.823C67.8678 307.823 67.5003 308.777 66.93 309.61C66.5607 310.126 66.0345 310.508 65.43 310.7C65.3049 310.77 65.1745 310.83 65.04 310.88C64.947 310.89 64.8531 310.89 64.76 310.88C64.4117 311.044 64.041 311.155 63.66 311.21Z" fill="#F7B600"/>
<path d="M148.88 312.44C149.76 312.577 150.655 312.593 151.54 312.49C151.996 312.493 152.447 312.401 152.865 312.22C153.283 312.038 153.659 311.771 153.968 311.436C154.277 311.101 154.512 310.705 154.659 310.273C154.806 309.841 154.86 309.384 154.82 308.93C154.82 306.75 154.82 304.57 154.82 302.39C154.82 300.93 154.82 300.93 156.29 300.93L157.37 300.98C157.5 301.129 157.595 301.305 157.648 301.495C157.702 301.685 157.713 301.885 157.68 302.08C157.68 304.44 157.75 306.81 157.68 309.17C157.751 310.73 157.229 312.259 156.22 313.45C155.9 313.779 155.529 314.052 155.12 314.26C154.516 314.562 153.891 314.819 153.25 315.03C152.92 315.24 152.51 315.03 152.18 315.22C150.994 315.285 149.806 315.285 148.62 315.22C147.433 315.142 146.278 314.8 145.24 314.22C144.455 313.78 143.808 313.132 143.37 312.346C142.932 311.56 142.721 310.669 142.76 309.77C142.66 307.01 142.76 304.23 142.7 301.46C142.7 301.02 142.86 300.89 143.28 300.9C143.97 300.9 144.66 300.9 145.35 300.9C145.591 301.335 145.678 301.839 145.6 302.33C145.522 304.755 145.578 307.182 145.77 309.6C145.796 309.977 145.903 310.344 146.084 310.675C146.265 311.007 146.516 311.295 146.82 311.52C147.101 311.832 147.477 312.043 147.89 312.12C148.17 312.46 148.58 312.25 148.88 312.44Z" fill="#F7B600"/>
<path d="M107.11 315.06C106.25 315.06 105.4 315.06 104.54 315.06C104.379 315.07 104.219 315.028 104.084 314.939C103.949 314.851 103.846 314.722 103.79 314.57C103.33 313.73 102.79 312.93 102.36 312.08C102.283 311.884 102.143 311.719 101.962 311.612C101.781 311.505 101.569 311.462 101.36 311.49C99.85 311.49 98.36 311.49 96.81 311.49C96.421 311.543 96.0249 311.495 95.66 311.35C96 310.76 96.34 310.2 96.66 309.63C96.7402 309.506 96.8551 309.409 96.9903 309.351C97.1254 309.292 97.2749 309.274 97.42 309.3H100.66C100.399 308.564 100.032 307.87 99.57 307.24C99.2507 306.54 98.8692 305.871 98.43 305.24C97.89 305.05 97.74 305.48 97.55 305.81C96.13 308.41 94.61 310.94 93.18 313.52C92.9404 314.062 92.6012 314.554 92.18 314.97C91.2265 315.08 90.2635 315.08 89.31 314.97C89.19 314.68 89.31 314.53 89.45 314.37C90.59 312.37 91.7367 310.37 92.89 308.37L96.59 301.98C96.7323 301.719 96.8928 301.469 97.07 301.23C97.2309 300.958 97.4827 300.752 97.7809 300.647C98.0792 300.543 98.4047 300.548 98.7 300.66C98.9642 300.754 99.2057 300.902 99.409 301.095C99.6123 301.288 99.7728 301.521 99.88 301.78C102.22 305.78 104.54 309.86 106.88 313.89C107.07 314.29 107.32 314.63 107.11 315.06Z" fill="#F7B600"/>
<path d="M141.69 303.63L137.36 303.71C136.78 304.08 136.91 304.71 136.9 305.23C136.9 308.03 136.9 310.84 136.9 313.64C136.981 314.134 136.874 314.641 136.6 315.06C135.94 315.06 135.28 315.06 134.6 315.06C134.13 315.06 133.96 314.91 133.97 314.43C133.97 313.01 133.97 311.59 133.97 310.17V304.63C133.97 303.63 134.1 303.63 133.02 303.63H129.66C128.91 303.63 128.9 303.63 128.89 302.85C128.89 302.36 128.89 301.85 128.89 301.37C128.89 300.89 129.04 300.89 129.37 300.9H141.25H141.64C141.932 301.293 142.093 301.768 142.102 302.257C142.111 302.746 141.967 303.226 141.69 303.63Z" fill="#F7B600"/>
<path d="M72 315.06H69.93C69.57 315.06 69.36 314.94 69.4 314.55C69.4 314.42 69.4 314.28 69.4 314.15V301.84C69.4 300.95 69.4 300.94 70.32 300.94C70.88 300.94 71.44 300.94 71.99 300.94C72.2609 301.323 72.3689 301.798 72.29 302.26C72.29 306.067 72.29 309.883 72.29 313.71C72.3567 314.18 72.2539 314.659 72 315.06Z" fill="#F7B600"/>
<path d="M178 315.06H175.93C175.57 315.06 175.36 314.94 175.4 314.55C175.41 314.417 175.41 314.283 175.4 314.15V301.84C175.4 300.95 175.4 300.94 176.32 300.94C176.88 300.94 177.44 300.94 178 300.94C178.262 301.327 178.369 301.798 178.3 302.26V313.71C178.364 314.181 178.257 314.66 178 315.06Z" fill="#F7B600"/>
<path d="M107.11 315.06C107.077 314.799 106.977 314.551 106.82 314.34C104.82 310.933 102.837 307.523 100.87 304.11C100.45 303.4 100.04 302.69 99.65 301.97C99.3808 301.509 99.0437 301.091 98.65 300.73C99.36 300.41 99.7 300.97 100.01 301.38C100.41 301.947 100.774 302.538 101.1 303.15L105.86 311.37C106.43 312.37 107.02 313.37 107.59 314.37C108 315 108 315 107.11 315.06Z" fill="#B133E2"/>
<path d="M20.92 315.06C20.92 311.727 20.92 308.36 20.92 304.96V304.37C20.92 303.6 20.92 303.6 21.79 303.71C21.79 307.01 21.79 310.307 21.79 313.6C21.79 313.84 21.79 314.07 21.79 314.3C21.77 315 21.76 315 20.92 315.06Z" fill="#AC36CF"/>
<path d="M72 315.06C72 310.36 72 305.663 72 300.97C72.73 300.97 72.75 300.97 72.75 301.6C72.75 305.87 72.75 310.13 72.75 314.4C72.77 315 72.54 315.16 72 315.06Z" fill="#AC35D5"/>
<path d="M178 315.06V301C178.73 301 178.75 301 178.75 301.63C178.75 305.9 178.75 310.16 178.75 314.43C178.79 315 178.56 315.16 178 315.06Z" fill="#AC35D5"/>
<path d="M34.66 314.29C34.52 314.62 34.35 314.8 34.02 314.46C33.26 313.68 32.49 312.92 31.73 312.14C31.32 311.72 30.94 311.27 30.5 310.78C31.3228 310.336 31.9996 309.664 32.4485 308.844C32.8975 308.024 33.0994 307.092 33.03 306.16C33.1128 305.253 32.946 304.34 32.5477 303.52C32.1494 302.701 31.5347 302.006 30.77 301.51C30.77 301.34 30.77 301.24 30.98 301.33C31.5447 301.509 32.0591 301.819 32.4814 302.234C32.9036 302.649 33.2218 303.158 33.41 303.72C33.9132 304.993 34.0041 306.392 33.67 307.72C33.5459 308.383 33.2652 309.006 32.8512 309.539C32.4372 310.071 31.9019 310.497 31.29 310.78C32.3523 312.007 33.4772 313.179 34.66 314.29Z" fill="#B133E1"/>
<path d="M52.34 315.05C51.7994 313.886 51.1744 312.763 50.47 311.69C48.63 308.42 46.72 305.19 44.83 301.94C44.581 301.471 44.241 301.056 43.83 300.72C44.1 300.51 44.33 300.67 44.55 300.81C44.9254 301.064 45.2313 301.408 45.44 301.81C47.86 305.977 50.2767 310.143 52.69 314.31C53.08 315 53.07 315 52.34 315.05Z" fill="#B033E1"/>
<path d="M169.68 314.5C173.99 312.72 174.88 306.73 172.33 303.29C171.819 302.638 171.183 302.094 170.46 301.69C170.46 301.54 170.51 301.44 170.68 301.53C173.11 302.53 174.12 304.58 174.41 307.04C174.639 308.895 174.18 310.77 173.12 312.31C172.369 313.451 171.228 314.279 169.91 314.64C169.75 314.74 169.69 314.66 169.68 314.5Z" fill="#B133DF"/>
<path d="M192.68 314.28C197.2 312.14 197.77 304.15 192.85 301.56C192.876 301.53 192.909 301.506 192.945 301.49C192.981 301.474 193.02 301.465 193.06 301.465C193.1 301.465 193.139 301.474 193.175 301.49C193.211 301.506 193.244 301.53 193.27 301.56C194.19 301.934 194.998 302.537 195.618 303.313C196.238 304.089 196.648 305.01 196.81 305.99C197.293 307.969 196.992 310.058 195.97 311.82C195.308 313.044 194.224 313.986 192.92 314.47C192.73 314.55 192.67 314.46 192.68 314.28Z" fill="#B133DF"/>
<path d="M136.59 315.06C136.59 311.5 136.59 307.94 136.59 304.38C136.59 303.65 136.59 303.65 137.35 303.71C137.35 307.043 137.35 310.403 137.35 313.79C137.35 313.99 137.35 314.19 137.35 314.39C137.41 315 137.14 315.17 136.59 315.06Z" fill="#AD35D3"/>
<path d="M55.93 315.06V304.35C55.93 303.67 55.93 303.67 56.75 303.71C56.75 307.043 56.75 310.377 56.75 313.71C56.75 313.94 56.75 314.17 56.75 314.4C56.71 315 56.71 315 55.93 315.06Z" fill="#B033DD"/>
<path d="M87.44 315C87.7205 314.703 87.9351 314.349 88.0695 313.963C88.2039 313.577 88.2552 313.167 88.22 312.76C88.22 308.83 88.22 304.89 88.22 300.95C88.76 300.8 88.9 301.05 88.89 301.56C88.89 303.24 88.89 304.92 88.89 306.56V312.98C88.9033 313.274 88.8866 313.569 88.84 313.86C88.8047 314.196 88.6376 314.505 88.3752 314.719C88.1129 314.933 87.7766 315.034 87.44 315Z" fill="#B332E5"/>
<path d="M154.83 314.26C156.83 313.12 157.33 311.26 157.37 309.15C157.42 306.43 157.37 303.7 157.37 300.98C157.81 300.87 158.06 300.98 158.05 301.49C158.05 304.35 158.11 307.21 157.97 310.06C158.001 311.005 157.735 311.935 157.209 312.721C156.684 313.507 155.925 314.108 155.04 314.44C154.83 314.54 154.81 314.43 154.83 314.26Z" fill="#B333E2"/>
<path d="M146.89 311.86C146.509 311.698 146.178 311.436 145.933 311.101C145.689 310.767 145.539 310.373 145.5 309.96C145.395 309.342 145.344 308.717 145.35 308.09C145.35 305.72 145.35 303.35 145.35 300.97C146.07 300.97 146.09 300.97 146.09 301.61C146.09 304.07 146.09 306.52 146.09 308.98C146.062 309.472 146.136 309.964 146.308 310.425C146.48 310.887 146.747 311.307 147.09 311.66C147.13 311.83 147.08 311.93 146.89 311.86Z" fill="#B036D8"/>
<path d="M92.16 315.05C92.1951 314.891 92.2488 314.737 92.32 314.59C94.12 311.423 95.9267 308.257 97.74 305.09C97.8202 304.962 97.907 304.839 98 304.72C98.1112 304.781 98.2069 304.867 98.2798 304.971C98.3526 305.075 98.4006 305.195 98.42 305.32C96.66 308.39 94.9 311.45 93.17 314.54C93.0994 314.738 92.9551 314.902 92.7671 314.997C92.579 315.092 92.3616 315.111 92.16 315.05Z" fill="#B333E1"/>
<path d="M65.26 310.71C67.31 309.64 67.91 307.81 67.84 305.71C67.8837 304.78 67.6391 303.859 67.1398 303.073C66.6404 302.288 65.9105 301.675 65.05 301.32C65 301.32 64.98 301.25 65 301.22C65.02 301.19 65 301.17 65.06 301.17C65.9651 301.307 66.799 301.741 67.4307 302.403C68.0624 303.066 68.4561 303.919 68.55 304.83C68.849 306.26 68.6255 307.75 67.92 309.03C67.6161 309.596 67.1802 310.081 66.6493 310.443C66.1184 310.805 65.5081 311.034 64.87 311.11C64.79 311.11 64.76 311.04 64.79 311C64.796 310.985 64.8055 310.972 64.8177 310.961C64.8299 310.951 64.8444 310.944 64.86 310.94C64.9158 310.926 64.9742 310.926 65.03 310.94L65.26 310.71Z" fill="#B133E0"/>
<path d="M76.56 315.06V305.4C76.8992 305.529 77.1823 305.773 77.36 306.09C77.36 308.6 77.36 311.09 77.36 313.61C77.34 313.873 77.34 314.137 77.36 314.4C77.39 315 77.1 315.16 76.56 315.06Z" fill="#AD35D4"/>
<path d="M37.34 315.05C37.8241 313.997 38.3787 312.978 39 312C40.24 309.73 41.54 307.49 42.83 305.25C43.18 304.65 43.2 304.66 43.56 305.32C42.83 306.56 42.09 307.8 41.37 309.04C40.29 310.92 39.21 312.79 38.17 314.69C38.0937 314.836 37.9696 314.951 37.8186 315.017C37.6676 315.082 37.4987 315.094 37.34 315.05Z" fill="#B333DF"/>
<path d="M85.63 310.08V310.46L85.56 310.52L85.49 310.46C85.4273 310.392 85.3568 310.332 85.28 310.28C84.07 309.07 82.86 307.87 81.66 306.65C79.97 304.94 78.3 303.21 76.66 301.5C76.4693 301.319 76.269 301.149 76.06 300.99C76.63 300.82 77.01 301.17 77.36 301.52C78.96 303.12 80.57 304.71 82.13 306.35C83.25 307.54 84.49 308.62 85.54 309.9C85.587 309.95 85.6183 310.012 85.63 310.08Z" fill="#AD35DD"/>
<path d="M210.32 314.5C210.91 314.112 211.401 313.591 211.753 312.978C212.105 312.366 212.308 311.679 212.346 310.973C212.384 310.268 212.256 309.564 211.972 308.917C211.687 308.27 211.255 307.699 210.71 307.25C210.71 307.09 210.71 307.01 210.9 307.08C212.44 307.62 212.9 308.88 213.01 310.33C213.16 312.23 212.44 314.14 210.56 314.66C210.38 314.76 210.34 314.65 210.32 314.5Z" fill="#AF34DC"/>
<path d="M126.1 314.5C126.69 314.112 127.181 313.591 127.533 312.978C127.885 312.366 128.088 311.679 128.126 310.973C128.164 310.268 128.036 309.564 127.752 308.917C127.467 308.27 127.035 307.699 126.49 307.25C126.49 307.09 126.49 307.01 126.68 307.08C128.22 307.62 128.68 308.88 128.79 310.33C128.94 312.23 128.22 314.14 126.34 314.66C126.15 314.76 126.12 314.65 126.1 314.5Z" fill="#AF34DC"/>
<path d="M117.78 306.65C117.434 306.691 117.085 306.602 116.801 306.401C116.516 306.199 116.317 305.9 116.24 305.56C115.9 304.56 116.53 303.75 117.68 303.72C116.58 304.74 116.61 305.48 117.78 306.65Z" fill="#AE37D1"/>
<path d="M202 306.65C201.654 306.688 201.307 306.599 201.023 306.398C200.739 306.197 200.539 305.899 200.46 305.56C200.12 304.56 200.76 303.75 201.9 303.72C200.81 304.74 200.83 305.48 202 306.65Z" fill="#AE37D1"/>
<path d="M141.69 303.63C141.69 302.75 141.69 301.86 141.69 300.97C142.1 300.88 142.4 300.97 142.38 301.46C142.36 301.95 142.38 302.57 142.38 303.12C142.38 303.67 142.13 303.74 141.69 303.63Z" fill="#AC31DF"/>
<path d="M127.45 303.63C127.45 302.75 127.45 301.86 127.45 300.98C127.87 300.88 128.15 300.98 128.13 301.47C128.11 301.96 128.13 302.57 128.13 303.11C128.13 303.65 127.89 303.74 127.45 303.63Z" fill="#B031E2"/>
<path d="M211.67 303.63C211.67 302.75 211.67 301.86 211.67 300.98C212.08 300.88 212.36 300.98 212.34 301.47C212.32 301.96 212.34 302.57 212.34 303.11C212.34 303.65 212.11 303.74 211.67 303.63Z" fill="#B031E2"/>
<path d="M176.7 103.38C177.736 103.532 178.703 103.988 179.48 104.69C179.463 104.715 179.441 104.737 179.415 104.753C179.39 104.77 179.361 104.781 179.331 104.785C179.301 104.79 179.27 104.788 179.241 104.781C179.211 104.773 179.184 104.759 179.16 104.74C178.274 104.418 177.444 103.959 176.7 103.38Z" fill="#B639C2"/>
<path d="M128.84 31.4V31.2C129.581 31.2208 130.315 31.3488 131.02 31.58C131.09 31.58 131.11 31.66 131.09 31.7C131.07 31.74 131.09 31.75 131.02 31.75L129.42 31.52C129.23 31.43 129.01 31.52 128.82 31.41L128.84 31.4Z" fill="#9237C9"/>
<path d="M130.46 148.7L130.27 148.87C129.722 148.688 129.234 148.36 128.86 147.92C129.53 147.9 130 148.4 130.46 148.7Z" fill="#AE36BA"/>
<path d="M154.83 314.26L155.04 314.44C154.517 314.828 153.881 315.035 153.23 315.03C153.66 314.56 154.29 314.51 154.83 314.26Z" fill="#B33CAB"/>
<path d="M169.68 314.5L169.91 314.64C169.709 314.806 169.474 314.926 169.222 314.994C168.97 315.061 168.707 315.073 168.45 315.03C168.814 314.761 169.235 314.58 169.68 314.5Z" fill="#A02DA9"/>
<path d="M210.32 314.5L210.56 314.66C210.392 314.829 210.183 314.952 209.953 315.016C209.724 315.081 209.482 315.086 209.25 315.03C209.556 314.766 209.924 314.584 210.32 314.5Z" fill="#AD3D9D"/>
<path d="M126.1 314.5L126.34 314.66C126.165 314.828 125.95 314.947 125.715 315.007C125.48 315.067 125.234 315.064 125 315C125.32 314.746 125.698 314.574 126.1 314.5Z" fill="#AD3D9D"/>
<path d="M146.89 311.86L147.11 311.66L147.85 312.09C147.923 312.09 147.953 312.13 147.94 312.21C147.94 312.27 147.94 312.29 147.87 312.29C147.683 312.319 147.491 312.293 147.318 312.217C147.144 312.141 146.996 312.017 146.89 311.86Z" fill="#A043B7"/>
<path d="M191 315C191.274 314.746 191.627 314.594 192 314.57C192.027 314.552 192.057 314.539 192.089 314.532C192.12 314.526 192.153 314.526 192.185 314.532C192.217 314.539 192.247 314.552 192.274 314.57C192.3 314.589 192.323 314.612 192.34 314.64C192.154 314.789 191.938 314.898 191.708 314.96C191.477 315.022 191.236 315.036 191 315Z" fill="#A52DB2"/>
<path d="M132.73 32C132.224 32.045 131.714 31.9731 131.24 31.79C131.19 31.79 131.17 31.71 131.19 31.67C131.21 31.63 131.19 31.61 131.24 31.61C131.757 31.6437 132.263 31.7761 132.73 32Z" fill="#7830CF"/>
<path d="M193.27 301.55H192.85C192.495 301.491 192.155 301.362 191.85 301.17C191.85 301.07 191.95 301.05 192.03 301.12C192.477 301.136 192.909 301.286 193.27 301.55Z" fill="#8938CF"/>
<path d="M170.68 301.53L170.46 301.69L169.7 301.34C169.63 301.34 169.6 301.27 169.62 301.23C169.64 301.19 169.62 301.16 169.67 301.16C170.039 301.164 170.396 301.295 170.68 301.53Z" fill="#7B38A7"/>
<path d="M109.82 258.79V258.56C110.216 258.696 110.587 258.896 110.92 259.15C110.52 259.178 110.126 259.048 109.82 258.79Z" fill="#BD469F"/>
<path d="M152.23 273.64V273.42C152.618 273.552 152.977 273.755 153.29 274.02C152.904 274.016 152.531 273.882 152.23 273.64Z" fill="#C046A7"/>
<path d="M64.86 310.89C64.8552 310.947 64.8552 311.003 64.86 311.06C64.4833 311.239 64.059 311.291 63.65 311.21C64.0386 311.054 64.445 310.946 64.86 310.89Z" fill="#CE54A3"/>
<path d="M65.06 301.12C65.0747 301.169 65.0747 301.221 65.06 301.27C64.74 301.15 64.37 301.2 64.06 300.97C64.41 301 64.76 300.86 65.06 301.12Z" fill="#8348AD"/>
<path d="M119.33 159.84V159.66C119.714 159.664 120.088 159.786 120.4 160.01C120.035 160.039 119.668 159.981 119.33 159.84Z" fill="#6634AD"/>
<path d="M147.87 312.29C147.875 312.223 147.875 312.157 147.87 312.09C148.19 312.26 148.61 312.16 148.87 312.44C148.529 312.499 148.179 312.446 147.87 312.29Z" fill="#4E2B9F"/>
<path d="M192.08 301.13L191.9 301.18C191.589 301.214 191.275 301.151 191 301C191.4 301 191.77 300.85 192.08 301.13Z" fill="#532BA4"/>
<path d="M152.18 315.22C152.501 315.028 152.882 314.96 153.25 315.03C152.93 315.34 152.54 315.22 152.18 315.22Z" fill="#A22A8D"/>
<path d="M169.3 301.18C169.013 301.186 168.729 301.114 168.48 300.97C168.83 300.97 169.19 300.86 169.48 301.13C169.46 301.22 169.39 301.24 169.3 301.18Z" fill="#5A2EA9"/>
<path d="M192.37 314.67L192.03 314.6C192.217 314.441 192.44 314.331 192.68 314.28L192.92 314.46C192.85 314.535 192.765 314.592 192.669 314.629C192.574 314.665 192.472 314.679 192.37 314.67Z" fill="#AE3CA0"/>
<path d="M30.12 301.18C29.8477 301.192 29.5783 301.119 29.35 300.97C29.7095 300.882 30.0891 300.936 30.41 301.12C30.3971 301.145 30.3786 301.167 30.356 301.185C30.3334 301.202 30.3072 301.214 30.2794 301.219C30.2515 301.225 30.2228 301.225 30.1952 301.218C30.1676 301.211 30.1419 301.198 30.12 301.18Z" fill="#652DBF"/>
<path d="M30.12 301.18L30.41 301.12C30.5148 301.108 30.6208 301.121 30.7198 301.158C30.8187 301.194 30.9078 301.253 30.98 301.33L30.77 301.51C30.5272 301.462 30.3023 301.348 30.12 301.18Z" fill="#933EBD"/>
<path d="M125.85 306.93C125.581 306.942 125.315 306.869 125.09 306.72C125.43 306.644 125.787 306.697 126.09 306.87C126.065 306.909 126.027 306.937 125.982 306.948C125.937 306.959 125.89 306.953 125.85 306.93Z" fill="#7240A6"/>
<path d="M210.07 306.93C209.801 306.941 209.535 306.868 209.31 306.72C209.65 306.644 210.007 306.697 210.31 306.87C210.285 306.909 210.247 306.937 210.202 306.948C210.157 306.959 210.11 306.953 210.07 306.93Z" fill="#7240A6"/>
<path d="M125.85 306.93L126.13 306.87C126.232 306.858 126.335 306.871 126.431 306.908C126.526 306.945 126.612 307.004 126.68 307.08C126.612 307.131 126.549 307.188 126.49 307.25C126.256 307.191 126.038 307.081 125.85 306.93Z" fill="#9244AD"/>
<path d="M210.07 306.93L210.35 306.87C210.452 306.858 210.555 306.87 210.651 306.907C210.747 306.943 210.832 307.003 210.9 307.08L210.71 307.25C210.476 307.191 210.258 307.081 210.07 306.93Z" fill="#9244AD"/>
<path d="M69 245.06C69.005 244.997 69.005 244.933 69 244.87C69.1228 244.886 69.2404 244.93 69.3442 244.997C69.448 245.064 69.5354 245.154 69.6 245.26C69.4913 245.284 69.3782 245.277 69.2726 245.242C69.167 245.207 69.0729 245.144 69 245.06Z" fill="#C143B0"/>
<path d="M128.48 31.16C128.378 31.1991 128.267 31.2076 128.161 31.1845C128.054 31.1615 127.956 31.1077 127.88 31.03C127.983 30.9977 128.092 30.9927 128.197 31.0155C128.302 31.0383 128.4 31.0881 128.48 31.16Z" fill="#903EB6"/>
<path d="M179.16 104.74L179.48 104.69C179.564 104.695 179.645 104.72 179.716 104.764C179.788 104.807 179.847 104.868 179.89 104.94C179.761 104.965 179.628 104.96 179.501 104.926C179.375 104.891 179.258 104.827 179.16 104.74Z" fill="#A3319E"/>
<path d="M169.3 301.18L169.5 301.13C169.555 301.11 169.615 301.11 169.67 301.13V301.31C169.602 301.321 169.533 301.315 169.468 301.292C169.404 301.269 169.346 301.231 169.3 301.18Z" fill="#9F4FAE"/>
<path d="M69.6 245.25C69.6905 245.231 69.7846 245.241 69.8689 245.279C69.9533 245.317 70.0236 245.38 70.07 245.46C69.88 245.46 69.69 245.48 69.6 245.25Z" fill="#AE3C86"/>
<path d="M128 147.53C128.21 147.53 128.41 147.53 128.51 147.74C128.414 147.76 128.314 147.751 128.223 147.714C128.132 147.676 128.054 147.612 128 147.53Z" fill="#C1459D"/>
<path d="M128.46 147.73C128.63 147.73 128.82 147.68 128.87 147.93C128.69 148 128.52 148 128.46 147.73Z" fill="#B436B3"/>
<path d="M131.24 31.59V31.77H131.04V31.6C131.105 31.5817 131.173 31.5783 131.24 31.59Z" fill="#8F34DA"/>
<path d="M85.63 310.08L85.47 309.9H85.64C85.6554 309.928 85.6626 309.96 85.6608 309.991C85.6591 310.023 85.6484 310.054 85.63 310.08Z" fill="#AF4CAD"/>
<path d="M129.47 91.45C132.384 92.9097 135.751 93.1787 138.86 92.2C140.24 91.7574 141.548 91.1138 142.74 90.29L143.49 89.82C143.81 90.06 143.76 90.4 143.72 90.73C143.168 96.0058 141.19 101.032 138 105.27C135.789 108.258 132.982 110.754 129.756 112.601C126.53 114.448 122.956 115.606 119.26 116C117.126 116.208 114.975 116.171 112.85 115.89C112.397 115.75 111.925 115.679 111.45 115.68C111.16 115.38 110.73 115.62 110.45 115.42C110.19 115.2 109.83 115.42 109.56 115.22C106.728 114.437 104.066 113.135 101.71 111.38C100.431 110.449 99.2274 109.419 98.11 108.3C94.0288 104.115 91.3397 98.7713 90.41 93C89.2772 86.7346 90.185 80.2709 93 74.56C94.0348 72.418 95.3459 70.421 96.9 68.62C99.7569 65.2679 103.351 62.6223 107.4 60.89C111.002 59.3885 114.892 58.7054 118.79 58.89C121.531 58.9569 124.239 59.5053 126.79 60.51C126.93 60.63 127.13 60.62 127.27 60.74C127.38 60.86 127.57 60.83 127.68 60.95C127.81 61.1 128.03 61.03 128.16 61.15C129.004 61.5417 129.822 61.9859 130.61 62.48C130.81 62.97 130.43 63.07 130.12 63.13C126.71 63.78 124.52 66.13 122.67 68.77C121.137 71.0095 120.141 73.5727 119.76 76.26C119.394 78.7978 119.813 81.3867 120.96 83.68C122.476 86.9478 125.132 89.5504 128.43 91C128.763 91.1791 129.111 91.3297 129.47 91.45Z" fill="#050C30"/>
<path d="M112.85 115.8C114.56 115.85 116.27 115.95 117.99 115.85C120.229 115.743 122.443 115.329 124.57 114.62C128.086 113.462 131.327 111.593 134.09 109.13C138.859 104.844 142.046 99.0778 143.14 92.76C143.367 91.7962 143.484 90.81 143.49 89.82L145.24 88.1C145.312 89.2269 145.248 90.3583 145.05 91.47C144.435 96.8121 142.359 101.881 139.05 106.12C137.665 107.888 136.063 109.474 134.28 110.84C131.172 113.223 127.584 114.904 123.763 115.767C119.943 116.631 115.981 116.655 112.15 115.84C112.247 115.759 112.367 115.712 112.493 115.705C112.619 115.698 112.744 115.731 112.85 115.8Z" fill="#B332E6"/>
<path d="M128.43 91.07C125.936 90.1543 123.783 88.4966 122.26 86.32C120.691 84.2628 119.719 81.8132 119.45 79.24C119.279 77.6303 119.408 76.0028 119.83 74.44C120.577 71.6239 121.944 69.0103 123.83 66.79C125.04 65.3944 126.507 64.2437 128.15 63.4C128.771 63.0803 129.452 62.893 130.15 62.85C130.34 62.85 130.69 62.85 130.49 62.48C130.49 62.3 130.49 62.19 130.7 62.28C131.289 62.5312 131.849 62.8464 132.37 63.22C130.271 63.5833 128.321 64.5412 126.75 65.98C124.741 67.8971 123.183 70.2369 122.19 72.83C119.96 78.68 121.01 83.83 125.29 88.44C126.227 89.4115 127.302 90.2403 128.48 90.9C128.54 90.9 128.56 90.99 128.53 91.03C128.5 91.07 128.45 91.07 128.43 91.07Z" fill="#B332E6"/>
<path d="M130.67 62.28L130.46 62.48L128 61.14C128.013 61.1172 128.032 61.0982 128.055 61.085C128.078 61.0718 128.104 61.0648 128.13 61.0648C128.156 61.0648 128.182 61.0718 128.205 61.085C128.228 61.0982 128.247 61.1172 128.26 61.14C129.114 61.402 129.926 61.786 130.67 62.28Z" fill="#B438BD"/>
<path d="M112.85 115.8L112.16 115.86C111.813 115.898 111.463 115.824 111.16 115.65C111.23 115.54 111.31 115.52 111.41 115.65C111.895 115.575 112.391 115.626 112.85 115.8Z" fill="#8A34D5"/>
<path d="M128.43 91.07C128.426 91.0134 128.426 90.9566 128.43 90.9C128.799 91.0091 129.14 91.1967 129.43 91.45C129.064 91.4342 128.714 91.301 128.43 91.07Z" fill="#BE4996"/>
<path d="M111.44 115.61H111.19C110.92 115.61 110.62 115.66 110.42 115.39C110.776 115.335 111.139 115.414 111.44 115.61Z" fill="#7F36CE"/>
<path d="M109.55 115.23C109.86 115.23 110.19 115.14 110.44 115.43C110.286 115.464 110.127 115.463 109.973 115.429C109.819 115.394 109.675 115.326 109.55 115.23Z" fill="#5D31A8"/>
<path d="M128.84 31.41C129.05 31.41 129.27 31.33 129.44 31.52C129.338 31.5474 129.231 31.5517 129.128 31.5327C129.024 31.5137 128.926 31.4718 128.84 31.41Z" fill="#903EB6"/>
<path d="M128.29 61.1H128.03C127.88 61.1 127.72 61.1 127.67 60.87C127.785 60.842 127.905 60.849 128.015 60.89C128.126 60.931 128.221 61.0041 128.29 61.1Z" fill="#BF4995"/>
<path d="M127.28 60.72C127.07 60.72 126.94 60.6 126.8 60.49C127 60.48 127.21 60.46 127.28 60.72Z" fill="#C848B9"/>
<path d="M127.68 60.92C127.5 60.92 127.33 60.92 127.27 60.71C127.45 60.7 127.62 60.7 127.68 60.92Z" fill="#BD4299"/>
<path d="M186 303.73C187.12 303.73 188.25 303.73 189.37 303.67C192.1 303.56 194.02 305.67 193.57 308.83C193.422 309.816 192.927 310.717 192.173 311.37C191.419 312.022 190.457 312.384 189.46 312.39C188.239 312.467 187.013 312.423 185.8 312.26C185.431 312.11 185.073 311.932 184.73 311.73C182.05 310.4 182.26 304.96 184.99 304.04C185.313 303.898 185.652 303.794 186 303.73Z" fill="#050C30"/>
<path d="M185.14 304.1C182.42 305.58 182.48 310.19 184.96 311.69C184.96 311.85 184.96 311.96 184.74 311.86C182.8 311.14 182.17 308.79 182.44 307.18C182.493 306.417 182.781 305.689 183.264 305.096C183.748 304.503 184.403 304.075 185.14 303.87C185.164 303.888 185.183 303.913 185.193 303.941C185.204 303.97 185.206 304 185.2 304.03C185.18 304.08 185.16 304.1 185.14 304.1Z" fill="#B235DD"/>
<path d="M184.74 311.86L184.96 311.69C185.31 311.774 185.62 311.975 185.84 312.26C185.638 312.298 185.429 312.281 185.235 312.21C185.042 312.14 184.871 312.019 184.74 311.86Z" fill="#A149AC"/>
<path d="M185.14 304.1V303.87C185.271 303.784 185.42 303.727 185.575 303.702C185.73 303.678 185.889 303.688 186.04 303.73C185.765 303.906 185.46 304.032 185.14 304.1Z" fill="#B035AF"/>
<path d="M162.58 303.7C164.13 303.7 165.68 303.7 167.23 303.7C168.131 303.69 169.005 304.002 169.697 304.579C170.388 305.157 170.85 305.962 171 306.85C171.29 307.895 171.188 309.009 170.712 309.984C170.237 310.958 169.422 311.725 168.42 312.14C168.106 312.283 167.765 312.358 167.42 312.36C165.778 312.465 164.132 312.465 162.49 312.36C162.251 312.039 162.147 311.637 162.2 311.24C162.2 309.14 162.2 307.037 162.2 304.93C162.164 304.71 162.179 304.484 162.245 304.27C162.311 304.057 162.426 303.861 162.58 303.7Z" fill="#050C30"/>
<path d="M162.58 303.7C162.58 306.207 162.58 308.717 162.58 311.23C162.58 311.6 162.58 311.96 162.58 312.32C161.9 312.32 161.88 312.32 161.88 311.64C161.88 309.45 161.88 307.25 161.88 305.05V304.17C161.82 303.59 162.11 303.49 162.58 303.7Z" fill="#B53DCC"/>
<path d="M85.47 310.46H85.61L85.56 310.6L85.47 310.46Z" fill="#AF4CAD"/>
<path d="M85.25 310.28C85.2984 310.287 85.3438 310.308 85.3809 310.34C85.4181 310.372 85.4455 310.413 85.46 310.46C85.4091 310.461 85.3598 310.443 85.3212 310.409C85.2825 310.376 85.2573 310.33 85.25 310.28Z" fill="#AF4CAD"/>
<path d="M65.26 310.71C65.246 310.758 65.2146 310.799 65.1721 310.824C65.1296 310.85 65.0789 310.859 65.03 310.85C65.0488 310.805 65.0811 310.768 65.1224 310.743C65.1637 310.718 65.2118 310.706 65.26 310.71Z" fill="#CE54A3"/>
</svg>
