<svg width="218" height="90" viewBox="0 0 218 90" fill="none" xmlns="http://www.w3.org/2000/svg">
<path d="M167.16 89.64H50.64C22.97 89.64 0.530029 69.76 0.530029 45.23C0.530029 20.71 22.97 0.830017 50.64 0.830017H167.16C194.83 0.830017 217.27 20.71 217.27 45.23C217.27 69.76 194.83 89.64 167.16 89.64Z" fill="#000E40"/>
<path d="M53.8738 38.7963V59H49.2786V33.9353C49.2786 33.0491 49.4938 32.3529 49.9242 31.8465C50.3799 31.3148 50.9876 31.049 51.7471 31.049C52.1016 31.049 52.4434 31.125 52.7725 31.2769C53.1016 31.4288 53.4434 31.682 53.7979 32.0364L73.28 51.3666V31.1629H77.8752V56.4555C77.8752 57.367 77.6473 58.0759 77.1916 58.5823C76.7612 59.0886 76.1916 59.3418 75.4827 59.3418C74.6978 59.3418 73.9636 59 73.28 58.3164L53.8738 38.7963ZM82.5481 59V31.3908H105.98V36.2139H87.3332V59H82.5481ZM90.8651 47.569V43.3535H104.841V47.569H90.8651ZM119.731 59V36.2139H109.249V31.3908H135.036V36.2139H124.554V59H119.731ZM138.215 59V54.1769H158.913C160.204 54.1769 161.191 53.8478 161.875 53.1895C162.584 52.5313 162.938 51.6578 162.938 50.5691C162.938 49.3792 162.584 48.4931 161.875 47.9107C161.191 47.3031 160.204 46.9993 158.913 46.9993H146.229C144.937 46.9993 143.76 46.8094 142.697 46.4296C141.659 46.0246 140.773 45.4802 140.038 44.7966C139.329 44.0877 138.772 43.2523 138.367 42.2902C137.988 41.3281 137.798 40.2774 137.798 39.1381C137.798 38.0241 137.975 36.9987 138.329 36.062C138.709 35.0999 139.253 34.277 139.962 33.5935C140.697 32.9099 141.595 32.3782 142.659 31.9984C143.722 31.5933 144.937 31.3908 146.305 31.3908H166.128V36.2139H146.305C145.191 36.2139 144.33 36.5177 143.722 37.1253C143.114 37.7076 142.811 38.5305 142.811 39.5938C142.811 40.6572 143.114 41.48 143.722 42.0623C144.355 42.6446 145.203 42.9358 146.267 42.9358H158.913C161.723 42.9358 163.85 43.594 165.293 44.9106C166.761 46.2271 167.496 48.2272 167.496 50.9109C167.496 52.0755 167.318 53.1516 166.964 54.139C166.609 55.1264 166.078 55.9872 165.369 56.7214C164.66 57.4303 163.761 57.9873 162.673 58.3924C161.609 58.7975 160.356 59 158.913 59H138.215Z" fill="#FFB000"/>
</svg>
