<svg width="284" height="293" viewBox="0 0 284 293" fill="none" xmlns="http://www.w3.org/2000/svg">
<path d="M271.34 0.920044H12.43C6.2444 0.920044 1.22998 5.93444 1.22998 12.12V281.26C1.22998 287.446 6.2444 292.46 12.43 292.46H271.34C277.526 292.46 282.54 287.446 282.54 281.26V12.12C282.54 5.93444 277.526 0.920044 271.34 0.920044Z" fill="#142468" stroke="#C11EBD" stroke-miterlimit="10"/>
<path d="M29.852 151C28.46 151 27.1688 150.744 25.9783 150.231C24.8061 149.7 23.7804 148.985 22.9012 148.088C22.0404 147.172 21.3627 146.091 20.8682 144.846C20.392 143.6 20.1539 142.254 20.1539 140.807C20.1539 139.342 20.392 138.005 20.8682 136.796C21.3627 135.587 22.0404 134.562 22.9012 133.719C23.7804 132.858 24.8061 132.199 25.9783 131.741C27.1688 131.265 28.46 131.027 29.852 131.027H40.6766V134.516H29.852C28.9546 134.516 28.1212 134.681 27.3519 135.01C26.601 135.322 25.9508 135.761 25.4013 136.329C24.8519 136.897 24.4214 137.575 24.1101 138.362C23.7987 139.15 23.643 140.02 23.643 140.972C23.643 141.906 23.7987 142.776 24.1101 143.582C24.4214 144.388 24.8519 145.084 25.4013 145.67C25.9508 146.238 26.601 146.687 27.3519 147.016C28.1212 147.346 28.9546 147.511 29.852 147.511H40.6766V151H29.852ZM52.6303 151C51.2383 151 49.9471 150.744 48.7566 150.231C47.5844 149.7 46.5587 148.985 45.6795 148.088C44.8187 147.172 44.141 146.091 43.6465 144.846C43.1703 143.6 42.9322 142.254 42.9322 140.807C42.9322 139.342 43.1703 138.005 43.6465 136.796C44.141 135.587 44.8187 134.562 45.6795 133.719C46.5587 132.858 47.5844 132.199 48.7566 131.741C49.9471 131.265 51.2383 131.027 52.6303 131.027H57.4931C58.9401 131.027 60.2588 131.265 61.4493 131.741C62.6581 132.217 63.693 132.886 64.5538 133.747C65.4147 134.607 66.0832 135.642 66.5594 136.851C67.0356 138.042 67.2737 139.36 67.2737 140.807C67.2737 142.254 67.0264 143.6 66.5319 144.846C66.0557 146.091 65.378 147.172 64.4989 148.088C63.638 148.985 62.6124 149.7 61.4218 150.231C60.2313 150.744 58.9218 151 57.4931 151H52.6303ZM57.4931 147.511C58.4089 147.511 59.2514 147.346 60.0207 147.016C60.7899 146.687 61.4493 146.238 61.9988 145.67C62.5666 145.084 63.0061 144.388 63.3175 143.582C63.6289 142.776 63.7846 141.906 63.7846 140.972C63.7846 140.038 63.6289 139.177 63.3175 138.39C63.0061 137.584 62.5666 136.897 61.9988 136.329C61.4493 135.761 60.7899 135.322 60.0207 135.01C59.2514 134.681 58.4089 134.516 57.4931 134.516H52.6303C51.7329 134.516 50.8995 134.681 50.1302 135.01C49.3793 135.322 48.7291 135.761 48.1796 136.329C47.6302 136.897 47.1997 137.575 46.8884 138.362C46.577 139.15 46.4213 140.02 46.4213 140.972C46.4213 141.906 46.577 142.776 46.8884 143.582C47.1997 144.388 47.6302 145.084 48.1796 145.67C48.7291 146.238 49.3793 146.687 50.1302 147.016C50.8995 147.346 51.7329 147.511 52.6303 147.511H57.4931ZM93.8607 151L90.0419 136.961L84.3824 149.956C84.1809 150.377 83.9336 150.707 83.6406 150.945C83.3658 151.165 83.0179 151.275 82.5966 151.275C81.7724 151.275 81.1771 150.835 80.8108 149.956L75.1788 136.961L71.3599 151H67.9258L73.0633 132.208C73.3014 131.256 73.8783 130.78 74.7941 130.78C75.1604 130.78 75.4993 130.88 75.8106 131.082C76.1403 131.283 76.3876 131.576 76.5524 131.961L82.7065 146.082L88.8605 131.961C89.1902 131.173 89.7489 130.78 90.5364 130.78C91.3789 130.78 91.9376 131.256 92.2123 132.208L97.3224 151H93.8607ZM99.8289 151V131.027H103.318V151H99.8289ZM110.203 136.384V151H106.879V132.868C106.879 132.226 107.034 131.723 107.346 131.356C107.675 130.972 108.115 130.78 108.664 130.78C108.921 130.78 109.168 130.834 109.406 130.944C109.644 131.054 109.892 131.237 110.148 131.494L124.242 145.478V130.862H127.566V149.159C127.566 149.819 127.401 150.331 127.072 150.698C126.76 151.064 126.348 151.247 125.835 151.247C125.268 151.247 124.736 151 124.242 150.505L110.203 136.384ZM140.068 151C138.676 151 137.385 150.744 136.194 150.231C135.022 149.7 133.996 148.985 133.117 148.088C132.256 147.172 131.579 146.091 131.084 144.846C130.608 143.6 130.37 142.254 130.37 140.807C130.37 139.342 130.608 138.005 131.084 136.796C131.579 135.587 132.256 134.562 133.117 133.719C133.996 132.858 135.022 132.199 136.194 131.741C137.385 131.265 138.676 131.027 140.068 131.027H150.892V134.516H140.068C139.17 134.516 138.337 134.681 137.568 135.01C136.817 135.322 136.167 135.761 135.617 136.329C135.068 136.897 134.637 137.575 134.326 138.362C134.015 139.15 133.859 140.02 133.859 140.972C133.859 141.906 134.015 142.776 134.326 143.582C134.637 144.388 135.068 145.084 135.617 145.67C136.167 146.238 136.817 146.687 137.568 147.016C138.337 147.346 139.17 147.511 140.068 147.511H148.612V142.318H139.601V139.379H152.129V151H140.068ZM163.41 151V147.511H178.384C179.318 147.511 180.032 147.273 180.526 146.797C181.039 146.32 181.296 145.688 181.296 144.901C181.296 144.04 181.039 143.399 180.526 142.978C180.032 142.538 179.318 142.318 178.384 142.318H169.207C168.273 142.318 167.422 142.181 166.652 141.906C165.901 141.613 165.26 141.219 164.729 140.725C164.216 140.212 163.813 139.608 163.52 138.912C163.246 138.216 163.108 137.456 163.108 136.631C163.108 135.825 163.236 135.084 163.493 134.406C163.768 133.71 164.161 133.115 164.674 132.62C165.205 132.126 165.856 131.741 166.625 131.466C167.394 131.173 168.273 131.027 169.262 131.027H183.603V134.516H169.262C168.456 134.516 167.834 134.736 167.394 135.175C166.955 135.597 166.735 136.192 166.735 136.961C166.735 137.73 166.955 138.326 167.394 138.747C167.852 139.168 168.466 139.379 169.235 139.379H178.384C180.417 139.379 181.955 139.855 182.999 140.807C184.061 141.76 184.593 143.207 184.593 145.148C184.593 145.991 184.464 146.769 184.208 147.483C183.951 148.198 183.567 148.82 183.054 149.352C182.541 149.864 181.891 150.267 181.103 150.56C180.334 150.853 179.428 151 178.384 151H163.41ZM196.705 151C195.313 151 194.022 150.744 192.831 150.231C191.659 149.7 190.633 148.985 189.754 148.088C188.893 147.172 188.216 146.091 187.721 144.846C187.245 143.6 187.007 142.254 187.007 140.807C187.007 139.342 187.245 138.005 187.721 136.796C188.216 135.587 188.893 134.562 189.754 133.719C190.633 132.858 191.659 132.199 192.831 131.741C194.022 131.265 195.313 131.027 196.705 131.027H201.568C203.015 131.027 204.334 131.265 205.524 131.741C206.733 132.217 207.768 132.886 208.629 133.747C209.489 134.607 210.158 135.642 210.634 136.851C211.11 138.042 211.348 139.36 211.348 140.807C211.348 142.254 211.101 143.6 210.607 144.846C210.13 146.091 209.453 147.172 208.574 148.088C207.713 148.985 206.687 149.7 205.497 150.231C204.306 150.744 202.997 151 201.568 151H196.705ZM201.568 147.511C202.484 147.511 203.326 147.346 204.095 147.016C204.865 146.687 205.524 146.238 206.074 145.67C206.641 145.084 207.081 144.388 207.392 143.582C207.704 142.776 207.859 141.906 207.859 140.972C207.859 140.038 207.704 139.177 207.392 138.39C207.081 137.584 206.641 136.897 206.074 136.329C205.524 135.761 204.865 135.322 204.095 135.01C203.326 134.681 202.484 134.516 201.568 134.516H196.705C195.808 134.516 194.974 134.681 194.205 135.01C193.454 135.322 192.804 135.761 192.254 136.329C191.705 136.897 191.275 137.575 190.963 138.362C190.652 139.15 190.496 140.02 190.496 140.972C190.496 141.906 190.652 142.776 190.963 143.582C191.275 144.388 191.705 145.084 192.254 145.67C192.804 146.238 193.454 146.687 194.205 147.016C194.974 147.346 195.808 147.511 196.705 147.511H201.568ZM223.293 151C221.901 151 220.61 150.744 219.419 150.231C218.247 149.7 217.222 148.985 216.342 148.088C215.482 147.172 214.804 146.091 214.309 144.846C213.833 143.6 213.595 142.254 213.595 140.807C213.595 139.342 213.833 138.005 214.309 136.796C214.804 135.587 215.482 134.562 216.342 133.719C217.222 132.858 218.247 132.199 219.419 131.741C220.61 131.265 221.901 131.027 223.293 131.027H228.156C229.603 131.027 230.922 131.265 232.112 131.741C233.321 132.217 234.356 132.886 235.217 133.747C236.078 134.607 236.746 135.642 237.222 136.851C237.698 138.042 237.937 139.36 237.937 140.807C237.937 142.254 237.689 143.6 237.195 144.846C236.719 146.091 236.041 147.172 235.162 148.088C234.301 148.985 233.275 149.7 232.085 150.231C230.894 150.744 229.585 151 228.156 151H223.293ZM228.156 147.511C229.072 147.511 229.914 147.346 230.684 147.016C231.453 146.687 232.112 146.238 232.662 145.67C233.229 145.084 233.669 144.388 233.98 143.582C234.292 142.776 234.447 141.906 234.447 140.972C234.447 140.038 234.292 139.177 233.98 138.39C233.669 137.584 233.229 136.897 232.662 136.329C232.112 135.761 231.453 135.322 230.684 135.01C229.914 134.681 229.072 134.516 228.156 134.516H223.293C222.396 134.516 221.562 134.681 220.793 135.01C220.042 135.322 219.392 135.761 218.842 136.329C218.293 136.897 217.863 137.575 217.551 138.362C217.24 139.15 217.084 140.02 217.084 140.972C217.084 141.906 217.24 142.776 217.551 143.582C217.863 144.388 218.293 145.084 218.842 145.67C219.392 146.238 220.042 146.687 220.793 147.016C221.562 147.346 222.396 147.511 223.293 147.511H228.156ZM244.002 136.384V151H240.678V132.868C240.678 132.226 240.833 131.723 241.145 131.356C241.474 130.972 241.914 130.78 242.463 130.78C242.72 130.78 242.967 130.834 243.205 130.944C243.443 131.054 243.691 131.237 243.947 131.494L258.041 145.478V130.862H261.365V149.159C261.365 149.819 261.2 150.331 260.871 150.698C260.559 151.064 260.147 151.247 259.634 151.247C259.067 151.247 258.535 151 258.041 150.505L244.002 136.384ZM137.527 182.352C137.527 182.883 137.344 183.331 136.978 183.698C136.611 184.046 136.163 184.22 135.631 184.22C135.1 184.22 134.661 184.046 134.313 183.698C133.965 183.331 133.791 182.883 133.791 182.352C133.791 181.82 133.965 181.381 134.313 181.033C134.661 180.667 135.1 180.483 135.631 180.483C136.163 180.483 136.611 180.667 136.978 181.033C137.344 181.381 137.527 181.82 137.527 182.352ZM144.717 182.352C144.717 182.883 144.534 183.331 144.168 183.698C143.802 184.046 143.353 184.22 142.822 184.22C142.291 184.22 141.851 184.046 141.503 183.698C141.155 183.331 140.981 182.883 140.981 182.352C140.981 181.82 141.155 181.381 141.503 181.033C141.851 180.667 142.291 180.483 142.822 180.483C143.353 180.483 143.802 180.667 144.168 181.033C144.534 181.381 144.717 181.82 144.717 182.352ZM151.908 182.352C151.908 182.883 151.725 183.331 151.358 183.698C150.992 184.046 150.543 184.22 150.012 184.22C149.481 184.22 149.041 184.046 148.693 183.698C148.345 183.331 148.171 182.883 148.171 182.352C148.171 181.82 148.345 181.381 148.693 181.033C149.041 180.667 149.481 180.483 150.012 180.483C150.543 180.483 150.992 180.667 151.358 181.033C151.725 181.381 151.908 181.82 151.908 182.352Z" fill="#C11EBD"/>
</svg>
