<svg width="87" height="32" viewBox="0 0 87 32" fill="none" xmlns="http://www.w3.org/2000/svg">
<path d="M62.1 12.78C60.8835 12.8218 59.6822 12.4993 58.6502 11.8539C57.6182 11.2085 56.8024 10.2695 56.3076 9.15737C55.8128 8.04524 55.6614 6.81067 55.8729 5.61195C56.0844 4.41323 56.6492 3.305 57.4947 2.42937C58.3402 1.55374 59.428 0.950617 60.6186 0.697336C61.8092 0.444056 63.0484 0.552162 64.1771 1.0078C65.3058 1.46343 66.2728 2.24582 66.9539 3.25465C67.635 4.26348 67.9993 5.45275 68 6.66999C68.0146 7.45878 67.8734 8.24271 67.5847 8.97689C67.2959 9.71107 66.8652 10.3811 66.3172 10.9486C65.7692 11.5161 65.1146 11.97 64.391 12.2843C63.6673 12.5985 62.8888 12.767 62.1 12.78ZM62.1 2.85999C61.3415 2.83409 60.5925 3.03535 59.949 3.43794C59.3056 3.84054 58.7971 4.42613 58.4887 5.11963C58.1803 5.81314 58.0861 6.58296 58.2181 7.33038C58.3501 8.07781 58.7023 8.76877 59.2296 9.31469C59.7569 9.86061 60.4352 10.2366 61.1776 10.3945C61.92 10.5523 62.6926 10.4848 63.3964 10.2007C64.1002 9.91654 64.7031 9.42865 65.1278 8.7996C65.5524 8.17054 65.7796 7.42898 65.78 6.66999C65.7961 5.67709 65.4176 4.71837 64.7278 4.00411C64.0379 3.28986 63.0929 2.8784 62.1 2.85999Z" fill="#150035"/>
<path d="M65.71 12.78H58.48C58.1753 12.7748 57.8747 12.7096 57.5952 12.5882C57.3157 12.4668 57.0628 12.2915 56.8511 12.0723C56.6394 11.8531 56.4729 11.5944 56.3612 11.3109C56.2495 11.0274 56.1947 10.7247 56.2 10.42V2.91999C56.1947 2.61532 56.2495 2.31258 56.3612 2.02908C56.4729 1.74557 56.6394 1.48685 56.8511 1.26769C57.0628 1.04854 57.3157 0.87324 57.5952 0.751812C57.8747 0.630384 58.1753 0.565205 58.48 0.559998H65.71C66.3262 0.570526 66.9132 0.824771 67.3424 1.26708C67.7716 1.70939 68.008 2.30373 68 2.91999V10.42C68.008 11.0363 67.7716 11.6306 67.3424 12.0729C66.9132 12.5152 66.3262 12.7695 65.71 12.78ZM58.48 2.86L58.42 10.42L65.71 10.48C65.727 10.4802 65.7434 10.4742 65.7563 10.4631C65.7691 10.4521 65.7776 10.4368 65.78 10.42V2.91999L58.48 2.86Z" fill="#150035"/>
<path d="M6.48001 12.78C5.26349 12.8218 4.0622 12.4993 3.03018 11.8539C1.99816 11.2085 1.18244 10.2695 0.687619 9.15737C0.192803 8.04524 0.0414475 6.81067 0.25295 5.61195C0.464452 4.41323 1.02917 3.305 1.87471 2.42937C2.72024 1.55374 3.80805 0.950617 4.99865 0.697336C6.18924 0.444056 7.42835 0.552162 8.5571 1.0078C9.68584 1.46343 10.6528 2.24582 11.3339 3.25465C12.015 4.26348 12.3793 5.45275 12.38 6.66999C12.3946 7.45878 12.2534 8.24271 11.9647 8.97689C11.6759 9.71107 11.2452 10.3811 10.6972 10.9486C10.1492 11.5161 9.49462 11.97 8.77098 12.2843C8.04734 12.5985 7.26883 12.767 6.48001 12.78ZM6.48001 2.85999C5.72112 2.83209 4.9712 3.0316 4.32651 3.43292C3.68182 3.83425 3.17177 4.41908 2.86181 5.11234C2.55186 5.80561 2.45614 6.57569 2.58696 7.32374C2.71777 8.07179 3.06915 8.76367 3.59598 9.31061C4.12282 9.85754 4.80108 10.2346 5.54371 10.3933C6.28634 10.552 7.05946 10.4852 7.76384 10.2014C8.46822 9.91757 9.07172 9.42976 9.49688 8.80054C9.92205 8.17132 10.1495 7.42939 10.15 6.66999C10.1661 5.67879 9.78904 4.72155 9.10131 4.00758C8.41357 3.29361 7.47111 2.88101 6.48001 2.85999Z" fill="white"/>
<path d="M65.71 31.75H58.48C58.1753 31.7448 57.8747 31.6796 57.5952 31.5582C57.3157 31.4368 57.0628 31.2615 56.8511 31.0423C56.6394 30.8231 56.4729 30.5644 56.3612 30.2809C56.2495 29.9974 56.1947 29.6947 56.2 29.39V21.89C56.1947 21.5853 56.2495 21.2826 56.3612 20.9991C56.4729 20.7156 56.6394 20.4569 56.8511 20.2377C57.0628 20.0185 57.3157 19.8432 57.5952 19.7218C57.8747 19.6004 58.1753 19.5352 58.48 19.53H65.71C66.3262 19.5405 66.9132 19.7948 67.3424 20.2371C67.7716 20.6794 68.008 21.2737 68 21.89V29.39C68.008 30.0063 67.7716 30.6006 67.3424 31.0429C66.9132 31.4852 66.3262 31.7395 65.71 31.75ZM58.48 21.83L58.42 29.39L65.71 29.45C65.727 29.4502 65.7434 29.4442 65.7563 29.4332C65.7691 29.4221 65.7776 29.4068 65.78 29.39V21.89L58.48 21.83Z" fill="#150035"/>
<path d="M83.94 12.78H76.71C76.4053 12.7748 76.1046 12.7096 75.8251 12.5882C75.5457 12.4668 75.2928 12.2915 75.0811 12.0723C74.8694 11.8531 74.7029 11.5944 74.5912 11.3109C74.4795 11.0274 74.4247 10.7247 74.43 10.42V2.91999C74.4247 2.61532 74.4795 2.31258 74.5912 2.02908C74.7029 1.74557 74.8694 1.48685 75.0811 1.26769C75.2928 1.04854 75.5457 0.87324 75.8251 0.751812C76.1046 0.630384 76.4053 0.565205 76.71 0.559998H83.94C84.2447 0.565205 84.5453 0.630384 84.8248 0.751812C85.1043 0.87324 85.3571 1.04854 85.5689 1.26769C85.7806 1.48685 85.9471 1.74557 86.0588 2.02908C86.1705 2.31258 86.2253 2.61532 86.22 2.91999V10.42C86.2253 10.7247 86.1705 11.0274 86.0588 11.3109C85.9471 11.5944 85.7806 11.8531 85.5689 12.0723C85.3571 12.2915 85.1043 12.4668 84.8248 12.5882C84.5453 12.7096 84.2447 12.7748 83.94 12.78ZM76.71 2.86L76.65 10.42L83.94 10.48C83.9479 10.48 83.9557 10.4784 83.963 10.4754C83.9702 10.4724 83.9768 10.468 83.9824 10.4624C83.988 10.4569 83.9924 10.4502 83.9954 10.443C83.9984 10.4357 84 10.4279 84 10.42V2.91999L76.71 2.86Z" fill="#150035"/>
<path d="M26.48 1.70999H24.26V11.63H26.48V1.70999Z" fill="white"/>
<path d="M30.15 5.52H20.58V7.82H30.15V5.52Z" fill="white"/>
<path d="M44.7 20.68H42.48V30.6H44.7V20.68Z" fill="white"/>
<path d="M48.38 24.49H38.81V26.79H48.38V24.49Z" fill="white"/>
<path d="M81.43 20.68H79.21V30.6H81.43V20.68Z" fill="#150035"/>
<path d="M85.11 24.49H75.54V26.79H85.11V24.49Z" fill="#150035"/>
</svg>
