<svg width="49" height="51" viewBox="0 0 49 51" fill="none" xmlns="http://www.w3.org/2000/svg">
<path d="M24.29 50.49C37.6332 50.49 48.45 39.2792 48.45 25.45C48.45 11.6208 37.6332 0.409973 24.29 0.409973C10.9468 0.409973 0.130005 11.6208 0.130005 25.45C0.130005 39.2792 10.9468 50.49 24.29 50.49Z" fill="#000E40"/>
<path d="M16.3 27.46L19.08 35.27L31.41 17.51L16.3 27.46Z" fill="#B8DAEC"/>
<path d="M19.38 29.2L19.12 35.35L25.63 29.63L19.38 29.2Z" fill="#88CDE3"/>
<path d="M34.4301 14.51L10.11 24.09C9.95551 24.1496 9.82267 24.2546 9.729 24.3912C9.63534 24.5277 9.58521 24.6894 9.58521 24.855C9.58521 25.0206 9.63534 25.1823 9.729 25.3188C9.82267 25.4554 9.95551 25.5604 10.11 25.62L16.38 27.81L30.66 18.26L19.35 29.2L28.16 36.12C28.3715 36.2854 28.6216 36.3942 28.8867 36.4362C29.1519 36.4782 29.4234 36.4519 29.6755 36.3598C29.9277 36.2678 30.1523 36.113 30.328 35.91C30.5038 35.7071 30.6249 35.4627 30.6801 35.2L35.4399 15.47C35.4745 15.3325 35.472 15.1883 35.4325 15.0522C35.393 14.916 35.3181 14.7928 35.2153 14.6951C35.1126 14.5974 34.9856 14.5289 34.8477 14.4963C34.7097 14.4638 34.5656 14.4685 34.4301 14.51Z" fill="#E7F7FC"/>
<path d="M27.095 31.045C26.8283 31.045 26.58 30.9967 26.35 30.9C26.12 30.8 25.92 30.665 25.75 30.495C25.5833 30.3217 25.4517 30.12 25.355 29.89C25.2583 29.66 25.21 29.4117 25.21 29.145C25.21 28.8783 25.2583 28.6333 25.355 28.41C25.4517 28.1867 25.5833 27.995 25.75 27.835C25.92 27.6717 26.12 27.545 26.35 27.455C26.58 27.365 26.8283 27.32 27.095 27.32C27.3583 27.32 27.605 27.365 27.835 27.455C28.065 27.545 28.265 27.6717 28.435 27.835C28.605 27.995 28.7383 28.1867 28.835 28.41C28.9317 28.6333 28.98 28.8783 28.98 29.145C28.98 29.4117 28.9317 29.66 28.835 29.89C28.7383 30.12 28.605 30.3217 28.435 30.495C28.265 30.665 28.065 30.8 27.835 30.9C27.605 30.9967 27.3583 31.045 27.095 31.045ZM28.34 29.175C28.34 29.0017 28.3117 28.84 28.255 28.69C28.2017 28.54 28.1217 28.4117 28.015 28.305C27.9083 28.1983 27.7767 28.115 27.62 28.055C27.4667 27.9917 27.2917 27.96 27.095 27.96C26.895 27.96 26.7167 27.9917 26.56 28.055C26.4067 28.115 26.2767 28.1983 26.17 28.305C26.0633 28.4117 25.9817 28.54 25.925 28.69C25.8717 28.84 25.845 29.0017 25.845 29.175C25.845 29.3517 25.8717 29.515 25.925 29.665C25.9817 29.815 26.0633 29.945 26.17 30.055C26.2767 30.165 26.4067 30.2517 26.56 30.315C26.7133 30.3783 26.89 30.41 27.09 30.41C27.29 30.41 27.4667 30.3783 27.62 30.315C27.7767 30.2517 27.9083 30.165 28.015 30.055C28.1217 29.945 28.2017 29.815 28.255 29.665C28.3117 29.515 28.34 29.3517 28.34 29.175Z" fill="white"/>
<path d="M25 31.715H29.19V31.815H25V31.715Z" fill="white"/>
<a href="https://t.me/rapinastudiosusa">
<rect fill="black" fill-opacity="0" width="4.19" height="6"/>
</a>
<path d="M17.095 26.045C16.8283 26.045 16.58 25.9967 16.35 25.9C16.12 25.8 15.92 25.665 15.75 25.495C15.5833 25.3217 15.4517 25.12 15.355 24.89C15.2583 24.66 15.21 24.4117 15.21 24.145C15.21 23.8783 15.2583 23.6333 15.355 23.41C15.4517 23.1867 15.5833 22.995 15.75 22.835C15.92 22.6717 16.12 22.545 16.35 22.455C16.58 22.365 16.8283 22.32 17.095 22.32C17.3583 22.32 17.605 22.365 17.835 22.455C18.065 22.545 18.265 22.6717 18.435 22.835C18.605 22.995 18.7383 23.1867 18.835 23.41C18.9317 23.6333 18.98 23.8783 18.98 24.145C18.98 24.4117 18.9317 24.66 18.835 24.89C18.7383 25.12 18.605 25.3217 18.435 25.495C18.265 25.665 18.065 25.8 17.835 25.9C17.605 25.9967 17.3583 26.045 17.095 26.045ZM18.34 24.175C18.34 24.0017 18.3117 23.84 18.255 23.69C18.2017 23.54 18.1217 23.4117 18.015 23.305C17.9083 23.1983 17.7767 23.115 17.62 23.055C17.4667 22.9917 17.2917 22.96 17.095 22.96C16.895 22.96 16.7167 22.9917 16.56 23.055C16.4067 23.115 16.2767 23.1983 16.17 23.305C16.0633 23.4117 15.9817 23.54 15.925 23.69C15.8717 23.84 15.845 24.0017 15.845 24.175C15.845 24.3517 15.8717 24.515 15.925 24.665C15.9817 24.815 16.0633 24.945 16.17 25.055C16.2767 25.165 16.4067 25.2517 16.56 25.315C16.7133 25.3783 16.89 25.41 17.09 25.41C17.29 25.41 17.4667 25.3783 17.62 25.315C17.7767 25.2517 17.9083 25.165 18.015 25.055C18.1217 24.945 18.2017 24.815 18.255 24.665C18.3117 24.515 18.34 24.3517 18.34 24.175Z" fill="white"/>
<path d="M15 26.715H19.19V26.815H15V26.715Z" fill="white"/>
<a href="https://t.me/rapinastudiosusa">
<rect fill="black" fill-opacity="0" width="4.19" height="6"/>
</a>
<path d="M31.095 22.045C30.8283 22.045 30.58 21.9967 30.35 21.9C30.12 21.8 29.92 21.665 29.75 21.495C29.5833 21.3217 29.4517 21.12 29.355 20.89C29.2583 20.66 29.21 20.4117 29.21 20.145C29.21 19.8783 29.2583 19.6333 29.355 19.41C29.4517 19.1867 29.5833 18.995 29.75 18.835C29.92 18.6717 30.12 18.545 30.35 18.455C30.58 18.365 30.8283 18.32 31.095 18.32C31.3583 18.32 31.605 18.365 31.835 18.455C32.065 18.545 32.265 18.6717 32.435 18.835C32.605 18.995 32.7383 19.1867 32.835 19.41C32.9317 19.6333 32.98 19.8783 32.98 20.145C32.98 20.4117 32.9317 20.66 32.835 20.89C32.7383 21.12 32.605 21.3217 32.435 21.495C32.265 21.665 32.065 21.8 31.835 21.9C31.605 21.9967 31.3583 22.045 31.095 22.045ZM32.34 20.175C32.34 20.0017 32.3117 19.84 32.255 19.69C32.2017 19.54 32.1217 19.4117 32.015 19.305C31.9083 19.1983 31.7767 19.115 31.62 19.055C31.4667 18.9917 31.2917 18.96 31.095 18.96C30.895 18.96 30.7167 18.9917 30.56 19.055C30.4067 19.115 30.2767 19.1983 30.17 19.305C30.0633 19.4117 29.9817 19.54 29.925 19.69C29.8717 19.84 29.845 20.0017 29.845 20.175C29.845 20.3517 29.8717 20.515 29.925 20.665C29.9817 20.815 30.0633 20.945 30.17 21.055C30.2767 21.165 30.4067 21.2517 30.56 21.315C30.7133 21.3783 30.89 21.41 31.09 21.41C31.29 21.41 31.4667 21.3783 31.62 21.315C31.7767 21.2517 31.9083 21.165 32.015 21.055C32.1217 20.945 32.2017 20.815 32.255 20.665C32.3117 20.515 32.34 20.3517 32.34 20.175Z" fill="white"/>
<path d="M29 22.715H33.19V22.815H29V22.715Z" fill="white"/>
<a href="https://t.me/rapinastudiosusa">
<rect fill="black" fill-opacity="0" width="4.19" height="6"/>
</a>
</svg>
