<svg width="47" height="50" viewBox="0 0 47 50" fill="none" xmlns="http://www.w3.org/2000/svg">
<path d="M46.8199 25C46.8199 38.3 36.4001 49.09 23.5601 49.09C10.7201 49.09 0.300049 38.27 0.300049 25C0.300049 11.73 10.7101 0.880005 23.5601 0.880005C36.4101 0.880005 46.8199 11.63 46.8199 25Z" fill="#000E40"/>
<path fill-rule="evenodd" clip-rule="evenodd" d="M9.47998 34.77C11.6691 34.9418 13.8658 34.5493 15.86 33.63C16.7831 33.2216 17.6448 32.6864 18.42 32.04C17.4956 32.0244 16.5877 31.7915 15.77 31.36C14.4106 30.6399 13.3692 29.4381 12.85 27.99C12.72 27.65 12.72 27.65 13.08 27.67C13.8316 27.792 14.6012 27.7407 15.33 27.52C14.8219 27.3907 14.334 27.1922 13.88 26.93C12.9079 26.3971 12.0919 25.6193 11.5131 24.6739C10.9342 23.7284 10.6125 22.6481 10.58 21.54C10.58 21.26 10.63 21.23 10.88 21.35C11.6214 21.7492 12.4399 21.9845 13.28 22.04C12.89 21.67 12.55 21.37 12.28 21.04C11.4422 20.0652 10.9024 18.87 10.7251 17.5969C10.5478 16.3238 10.7404 15.0266 11.28 13.86C11.44 13.56 11.49 13.56 11.7 13.79C14.3648 17.0979 18.1643 19.297 22.36 19.96C22.8 20.05 23.27 20.06 23.72 20.14C24.02 20.2 24.05 20.05 24.01 19.8C23.7818 18.5212 23.9463 17.2033 24.4818 16.0198C25.0173 14.8363 25.8988 13.8427 27.01 13.17C28.1436 12.5032 29.4672 12.2336 30.7714 12.4039C32.0755 12.5741 33.2855 13.1745 34.21 14.11C34.295 14.1975 34.4027 14.2597 34.521 14.2897C34.6393 14.3197 34.7635 14.3164 34.88 14.28C36.0195 14.0178 37.1098 13.5755 38.11 12.97C38.2099 12.9367 38.2995 12.8781 38.37 12.8C37.9566 14.2378 37.0412 15.4797 35.79 16.3C36.9274 16.1591 38.0386 15.8561 39.09 15.4C39.09 15.56 38.9999 15.65 38.9399 15.77C38.2315 16.7849 37.3755 17.6882 36.4 18.45C36.3195 18.509 36.2559 18.588 36.2156 18.6793C36.1752 18.7705 36.1595 18.8707 36.17 18.97C36.2873 23.4635 34.794 27.851 31.96 31.34C29.4138 34.521 25.7737 36.6388 21.75 37.28C17.5281 38.0359 13.1768 37.1564 9.57996 34.82C9.55032 34.7968 9.51634 34.7798 9.47998 34.77Z" fill="white"/>
<path d="M31.19 25.09C30.6567 25.09 30.16 24.9933 29.7 24.8C29.24 24.6 28.84 24.33 28.5 23.99C28.1667 23.6433 27.9033 23.24 27.71 22.78C27.5167 22.32 27.42 21.8233 27.42 21.29C27.42 20.7567 27.5167 20.2667 27.71 19.82C27.9033 19.3733 28.1667 18.99 28.5 18.67C28.84 18.3433 29.24 18.09 29.7 17.91C30.16 17.73 30.6567 17.64 31.19 17.64C31.7167 17.64 32.21 17.73 32.67 17.91C33.13 18.09 33.53 18.3433 33.87 18.67C34.21 18.99 34.4767 19.3733 34.67 19.82C34.8633 20.2667 34.96 20.7567 34.96 21.29C34.96 21.8233 34.8633 22.32 34.67 22.78C34.4767 23.24 34.21 23.6433 33.87 23.99C33.53 24.33 33.13 24.6 32.67 24.8C32.21 24.9933 31.7167 25.09 31.19 25.09ZM33.68 21.35C33.68 21.0033 33.6233 20.68 33.51 20.38C33.4033 20.08 33.2433 19.8233 33.03 19.61C32.8167 19.3967 32.5533 19.23 32.24 19.11C31.9333 18.9833 31.5833 18.92 31.19 18.92C30.79 18.92 30.4333 18.9833 30.12 19.11C29.8133 19.23 29.5533 19.3967 29.34 19.61C29.1267 19.8233 28.9633 20.08 28.85 20.38C28.7433 20.68 28.69 21.0033 28.69 21.35C28.69 21.7033 28.7433 22.03 28.85 22.33C28.9633 22.63 29.1267 22.89 29.34 23.11C29.5533 23.33 29.8133 23.5033 30.12 23.63C30.4267 23.7567 30.78 23.82 31.18 23.82C31.58 23.82 31.9333 23.7567 32.24 23.63C32.5533 23.5033 32.8167 23.33 33.03 23.11C33.2433 22.89 33.4033 22.63 33.51 22.33C33.6233 22.03 33.68 21.7033 33.68 21.35Z" fill="white"/>
<path d="M27 26.43H35.38V26.63H27V26.43Z" fill="white"/>
<a href="https://twitter.com/AchtisticMan">
<rect fill="black" fill-opacity="0" width="8.38" height="12"/>
</a>
<path d="M23.19 31.09C22.6567 31.09 22.16 30.9933 21.7 30.8C21.24 30.6 20.84 30.33 20.5 29.99C20.1667 29.6433 19.9033 29.24 19.71 28.78C19.5167 28.32 19.42 27.8233 19.42 27.29C19.42 26.7567 19.5167 26.2667 19.71 25.82C19.9033 25.3733 20.1667 24.99 20.5 24.67C20.84 24.3433 21.24 24.09 21.7 23.91C22.16 23.73 22.6567 23.64 23.19 23.64C23.7167 23.64 24.21 23.73 24.67 23.91C25.13 24.09 25.53 24.3433 25.87 24.67C26.21 24.99 26.4767 25.3733 26.67 25.82C26.8633 26.2667 26.96 26.7567 26.96 27.29C26.96 27.8233 26.8633 28.32 26.67 28.78C26.4767 29.24 26.21 29.6433 25.87 29.99C25.53 30.33 25.13 30.6 24.67 30.8C24.21 30.9933 23.7167 31.09 23.19 31.09ZM25.68 27.35C25.68 27.0033 25.6233 26.68 25.51 26.38C25.4033 26.08 25.2433 25.8233 25.03 25.61C24.8167 25.3967 24.5533 25.23 24.24 25.11C23.9333 24.9833 23.5833 24.92 23.19 24.92C22.79 24.92 22.4333 24.9833 22.12 25.11C21.8133 25.23 21.5533 25.3967 21.34 25.61C21.1267 25.8233 20.9633 26.08 20.85 26.38C20.7433 26.68 20.69 27.0033 20.69 27.35C20.69 27.7033 20.7433 28.03 20.85 28.33C20.9633 28.63 21.1267 28.89 21.34 29.11C21.5533 29.33 21.8133 29.5033 22.12 29.63C22.4267 29.7567 22.78 29.82 23.18 29.82C23.58 29.82 23.9333 29.7567 24.24 29.63C24.5533 29.5033 24.8167 29.33 25.03 29.11C25.2433 28.89 25.4033 28.63 25.51 28.33C25.6233 28.03 25.68 27.7033 25.68 27.35Z" fill="white"/>
<path d="M19 32.43H27.38V32.63H19V32.43Z" fill="white"/>
<a href="https://twitter.com/AchtisticMan">
<rect fill="black" fill-opacity="0" width="8.38" height="12"/>
</a>
</svg>
